<svg width="888" height="892" viewBox="0 0 888 892" fill="none" xmlns="http://www.w3.org/2000/svg">
<g opacity="0.05">
<path fill-rule="evenodd" clip-rule="evenodd" d="M192.491 67.7021C161.222 88.3295 152.596 130.436 173.249 161.675C193.901 192.913 236.046 201.518 267.318 180.891C298.59 160.263 307.203 118.162 286.563 86.9289C265.921 55.6962 223.765 47.0721 192.491 67.7021ZM251.631 157.158C242.904 162.912 232.248 164.97 222.003 162.878C211.759 160.787 202.765 154.717 196.999 146.004C191.242 137.285 189.186 126.64 191.281 116.408C193.377 106.175 199.453 97.1921 208.175 91.4319C216.904 85.6814 227.561 83.6279 237.807 85.7222C248.048 87.8167 257.043 93.888 262.806 102.602C268.562 111.319 270.615 121.961 268.52 132.19C266.424 142.42 260.35 151.4 251.631 157.158Z" fill="url(#paint0_linear_51_729)"/>
<path fill-rule="evenodd" clip-rule="evenodd" d="M120.81 141.442C120.81 141.442 151.162 190.958 174.123 228.425C177.884 234.556 179.827 241.627 179.725 248.815C179.624 256.005 177.482 263.018 173.55 269.039C169.617 275.061 164.055 279.845 157.51 282.835C150.965 285.827 143.705 286.901 136.572 285.936L35.3826 272.252L39.4572 242.324C39.4572 242.324 97.0493 250.119 140.631 256.012C142.097 256.209 143.589 255.989 144.935 255.372C146.28 254.758 147.424 253.777 148.234 252.539C149.04 251.304 149.479 249.865 149.498 248.388C149.519 246.913 149.119 245.462 148.347 244.206C125.385 206.739 95.0308 157.225 95.0308 157.225L120.81 141.442Z" fill="url(#paint1_linear_51_729)"/>
<path fill-rule="evenodd" clip-rule="evenodd" d="M1.04789 367.35C0.0364001 374.467 1.06732 381.726 4.02086 388.281C6.97438 394.838 11.7293 400.424 17.7335 404.388L102.908 460.638L122.514 443.477L100.491 345.235L133.849 334.832L124.842 306.002L27.3735 336.402C20.5048 338.545 14.3854 342.59 9.72537 348.068C5.06531 353.545 2.05556 360.23 1.04526 367.35H1.04789ZM84.7449 412.429L34.4191 379.196C33.1866 378.381 32.2108 377.233 31.6043 375.887C30.9981 374.54 30.7862 373.049 30.9931 371.589C31.2004 370.126 31.8186 368.751 32.776 367.625C33.7335 366.499 34.9909 365.666 36.4025 365.225L71.6387 354.235L84.7449 412.429Z" fill="url(#paint2_linear_51_729)"/>
<path fill-rule="evenodd" clip-rule="evenodd" d="M6.66995 561.888C16.5817 597.988 53.9735 619.253 90.1141 609.348C126.255 599.446 147.537 562.095 137.62 526.012C127.702 489.929 90.3159 468.652 54.1916 478.552C18.0673 488.454 -3.24451 525.806 6.67533 561.891L6.66995 561.888ZM110.166 533.52C115.926 554.489 103.568 576.182 82.5813 581.928C72.4964 584.688 61.727 583.336 52.64 578.168C43.5531 573 36.8918 564.439 34.1204 554.368C31.3592 544.295 32.7143 533.539 37.8882 524.461C43.0621 515.386 51.6317 508.734 61.7135 505.965C71.7968 503.205 82.5642 504.557 91.6499 509.725C100.736 514.891 107.396 523.451 110.166 533.52Z" fill="url(#paint3_linear_51_729)"/>
<path fill-rule="evenodd" clip-rule="evenodd" d="M54.5977 653.027L153.858 629.146C160.856 627.461 168.189 627.793 175.005 630.104C181.821 632.416 187.841 636.612 192.364 642.207C196.889 647.797 199.732 654.554 200.565 661.697C201.398 668.837 200.186 676.066 197.068 682.547C178.036 722.148 152.876 774.487 152.876 774.487L125.619 761.415C125.619 761.415 150.785 709.074 169.817 669.475C170.458 668.145 170.706 666.659 170.536 665.191C170.365 663.724 169.78 662.335 168.851 661.185C167.923 660.035 166.686 659.17 165.286 658.693C163.885 658.219 162.377 658.15 160.939 658.496L61.6784 682.379L54.5977 653.027Z" fill="url(#paint4_linear_51_729)"/>
<path fill-rule="evenodd" clip-rule="evenodd" d="M234.356 842.454C240.818 845.619 248.046 846.888 255.201 846.115C262.356 845.342 269.146 842.556 274.781 838.087L354.711 774.627L344.45 750.699L244.127 741.162L244.563 706.26L214.33 705.878C214.33 705.878 213.601 763.945 213.052 807.868C212.964 815.056 214.918 822.12 218.686 828.246C222.455 834.37 227.884 839.301 234.345 842.469L234.356 842.454ZM303.197 776.946L255.969 814.449C254.812 815.369 253.418 815.94 251.948 816.099C250.478 816.258 248.994 815.997 247.667 815.345C246.339 814.695 245.225 813.683 244.45 812.424C243.677 811.165 243.274 809.714 243.293 808.237L243.753 771.37L303.197 776.946Z" fill="url(#paint5_linear_51_729)"/>
<path fill-rule="evenodd" clip-rule="evenodd" d="M419.847 891.334C457.283 892.987 489.013 863.969 490.685 826.573C492.354 789.174 463.293 757.482 425.854 755.823C388.418 754.161 356.69 783.181 355.028 820.572C353.364 857.964 382.408 889.661 419.847 891.334ZM424.595 784.224C446.335 785.189 463.213 803.595 462.245 825.314C461.778 835.75 457.184 845.572 449.469 852.625C441.755 859.678 431.554 863.381 421.108 862.923C410.663 862.454 400.829 857.864 393.771 850.157C386.713 842.452 383.005 832.263 383.463 821.827C383.93 811.393 388.525 801.568 396.237 794.516C403.949 787.463 414.148 783.755 424.595 784.21V784.224Z" fill="url(#paint6_linear_51_729)"/>
<path fill-rule="evenodd" clip-rule="evenodd" d="M521.161 873.774C521.161 873.774 525.796 815.902 529.297 772.107C529.871 764.94 532.467 758.082 536.786 752.328C541.103 746.577 546.966 742.165 553.694 739.607C560.42 737.051 567.736 736.456 574.789 737.885C581.842 739.315 588.348 742.715 593.544 747.686C625.3 778.065 667.284 818.225 667.284 818.225L646.374 840.039L572.634 769.497C571.565 768.475 570.23 767.778 568.78 767.482C567.331 767.188 565.828 767.311 564.446 767.835C563.064 768.364 561.859 769.269 560.973 770.452C560.084 771.635 559.553 773.046 559.434 774.518C555.935 818.308 551.295 876.176 551.295 876.176L521.161 873.774Z" fill="url(#paint7_linear_51_729)"/>
<path fill-rule="evenodd" clip-rule="evenodd" d="M753.752 760.578C758.755 755.408 762.187 748.928 763.65 741.89C765.113 734.849 764.549 727.54 762.021 720.809L726.152 625.315L700.195 627.703L660.26 720.131L627.143 708.981L617.484 737.606L714.244 770.177C721.064 772.472 728.397 772.79 735.388 771.09C742.382 769.39 748.75 765.746 753.752 760.578ZM712.532 674.994L733.724 731.42C734.246 732.803 734.364 734.303 734.063 735.749C733.762 737.196 733.058 738.526 732.029 739.588C731 740.647 729.694 741.397 728.257 741.747C726.821 742.098 725.313 742.034 723.912 741.565L688.924 729.785L712.532 674.994Z" fill="url(#paint8_linear_51_729)"/>
<path fill-rule="evenodd" clip-rule="evenodd" d="M860.979 600.624C874.191 565.594 856.446 526.443 821.378 513.253C786.312 500.064 747.121 517.788 733.914 552.82C720.704 587.85 738.449 626.994 773.51 640.189C808.571 653.387 847.774 635.668 860.974 600.636L860.979 600.624ZM760.547 562.822C764.236 553.05 771.659 545.141 781.184 540.831C790.71 536.524 801.556 536.168 811.342 539.845C821.127 543.532 829.045 550.947 833.357 560.464C837.672 569.98 838.025 580.816 834.341 590.593C830.65 600.366 823.227 608.272 813.701 612.58C804.176 616.885 793.33 617.241 783.543 613.561C763.176 605.906 752.88 583.163 760.547 562.822Z" fill="url(#paint9_linear_51_729)"/>
<path fill-rule="evenodd" clip-rule="evenodd" d="M875.791 498.736L781.428 459.813C774.774 457.068 769.034 452.497 764.878 446.625C760.722 440.755 758.318 433.825 757.946 426.644C757.574 419.466 759.248 412.327 762.773 406.059C766.298 399.793 771.531 394.653 777.86 391.237L867.698 342.77L882.062 369.343C882.062 369.343 830.93 396.927 792.232 417.801C790.93 418.506 789.854 419.561 789.129 420.85C788.403 422.138 788.057 423.605 788.133 425.082C788.209 426.559 788.702 427.981 789.558 429.188C790.411 430.395 791.592 431.334 792.96 431.896L887.33 470.821L875.791 498.736Z" fill="url(#paint10_linear_51_729)"/>
<path fill-rule="evenodd" clip-rule="evenodd" d="M837.295 244.938C833.926 238.585 828.824 233.317 822.58 229.745C816.333 226.173 809.202 224.444 802.014 224.758L700.015 229.223L694.24 254.613L769.835 321.191L748.959 349.19L773.202 367.233C773.202 367.233 807.919 320.667 834.199 285.436C838.499 279.67 841.074 272.804 841.622 265.637C842.172 258.468 840.676 251.292 837.305 244.938H837.295ZM743.06 257.575L803.344 254.938C804.823 254.872 806.288 255.225 807.573 255.96C808.856 256.695 809.903 257.778 810.596 259.085C811.288 260.393 811.599 261.87 811.485 263.345C811.371 264.82 810.842 266.233 809.958 267.418L787.905 296.991L743.06 257.575Z" fill="url(#paint11_linear_51_729)"/>
<path fill-rule="evenodd" clip-rule="evenodd" d="M653.595 175.439C636.581 161.881 633.776 137.082 647.344 120.087C653.866 111.922 663.365 106.678 673.756 105.508C684.147 104.338 694.578 107.337 702.758 113.847C710.93 120.363 716.178 129.853 717.349 140.232C718.518 150.611 715.517 161.03 709.002 169.199C702.478 177.361 692.978 182.602 682.59 183.772C672.201 184.942 661.772 181.945 653.595 175.439ZM720.503 91.6147C691.21 68.2749 648.451 73.0923 625.087 102.368C601.721 131.644 606.548 174.339 635.85 197.676C665.153 221.013 707.897 216.196 731.259 186.923C754.618 157.65 749.8 114.952 720.495 91.604L720.503 91.6147Z" fill="url(#paint12_linear_51_729)"/>
<path fill-rule="evenodd" clip-rule="evenodd" d="M628.221 46.1663C628.221 46.1663 590.439 90.284 561.847 123.665C557.17 129.13 551.037 133.157 544.162 135.28C537.284 137.402 529.944 137.532 522.998 135.654C516.049 133.776 509.779 129.968 504.909 124.671C500.042 119.375 496.778 112.809 495.495 105.734C487.66 62.5057 477.3 5.37659 477.3 5.37659L507.052 0C507.052 0 517.405 57.1291 525.241 100.354C525.506 101.808 526.177 103.158 527.178 104.247C528.178 105.336 529.465 106.12 530.893 106.508C532.32 106.894 533.828 106.867 535.241 106.43C536.654 105.993 537.912 105.164 538.873 104.04L605.244 26.5417L628.221 46.1663Z" fill="url(#paint13_linear_51_729)"/>
<path fill-rule="evenodd" clip-rule="evenodd" d="M357.496 94.072L373.598 36.0045C373.994 34.5807 374.786 33.2979 375.881 32.3052C376.977 31.3126 378.333 30.6507 379.788 30.3968C381.246 30.144 382.745 30.3081 384.11 30.87C385.478 31.4316 386.659 32.3683 387.515 33.5717L408.861 63.6564L357.499 94.0826L357.496 94.072ZM374.573 0.639839C367.484 1.87844 360.891 5.10014 355.562 9.93089C350.232 14.7616 346.382 21.0034 344.462 27.9317L317.21 126.243L339.604 139.569L426.343 88.3082L446.553 116.788L471.221 99.3141C471.221 99.3141 437.608 51.9355 412.175 16.1003C408.012 10.235 402.27 5.66919 395.615 2.93264C388.958 0.196096 381.664 -0.59901 374.573 0.639839Z" fill="url(#paint14_linear_51_729)"/>
</g>
<defs>
<linearGradient id="paint0_linear_51_729" x1="444" y1="0" x2="444" y2="891.402" gradientUnits="userSpaceOnUse">
<stop stop-color="white"/>
<stop offset="1" stop-color="white" stop-opacity="0"/>
</linearGradient>
<linearGradient id="paint1_linear_51_729" x1="444" y1="0" x2="444" y2="891.402" gradientUnits="userSpaceOnUse">
<stop stop-color="white"/>
<stop offset="1" stop-color="white" stop-opacity="0"/>
</linearGradient>
<linearGradient id="paint2_linear_51_729" x1="444" y1="0" x2="444" y2="891.402" gradientUnits="userSpaceOnUse">
<stop stop-color="white"/>
<stop offset="1" stop-color="white" stop-opacity="0"/>
</linearGradient>
<linearGradient id="paint3_linear_51_729" x1="444" y1="0" x2="444" y2="891.402" gradientUnits="userSpaceOnUse">
<stop stop-color="white"/>
<stop offset="1" stop-color="white" stop-opacity="0"/>
</linearGradient>
<linearGradient id="paint4_linear_51_729" x1="444" y1="0" x2="444" y2="891.402" gradientUnits="userSpaceOnUse">
<stop stop-color="white"/>
<stop offset="1" stop-color="white" stop-opacity="0"/>
</linearGradient>
<linearGradient id="paint5_linear_51_729" x1="444" y1="0" x2="444" y2="891.402" gradientUnits="userSpaceOnUse">
<stop stop-color="white"/>
<stop offset="1" stop-color="white" stop-opacity="0"/>
</linearGradient>
<linearGradient id="paint6_linear_51_729" x1="444" y1="0" x2="444" y2="891.402" gradientUnits="userSpaceOnUse">
<stop stop-color="white"/>
<stop offset="1" stop-color="white" stop-opacity="0"/>
</linearGradient>
<linearGradient id="paint7_linear_51_729" x1="444" y1="0" x2="444" y2="891.402" gradientUnits="userSpaceOnUse">
<stop stop-color="white"/>
<stop offset="1" stop-color="white" stop-opacity="0"/>
</linearGradient>
<linearGradient id="paint8_linear_51_729" x1="444" y1="0" x2="444" y2="891.402" gradientUnits="userSpaceOnUse">
<stop stop-color="white"/>
<stop offset="1" stop-color="white" stop-opacity="0"/>
</linearGradient>
<linearGradient id="paint9_linear_51_729" x1="444" y1="0" x2="444" y2="891.402" gradientUnits="userSpaceOnUse">
<stop stop-color="white"/>
<stop offset="1" stop-color="white" stop-opacity="0"/>
</linearGradient>
<linearGradient id="paint10_linear_51_729" x1="444" y1="0" x2="444" y2="891.402" gradientUnits="userSpaceOnUse">
<stop stop-color="white"/>
<stop offset="1" stop-color="white" stop-opacity="0"/>
</linearGradient>
<linearGradient id="paint11_linear_51_729" x1="444" y1="0" x2="444" y2="891.402" gradientUnits="userSpaceOnUse">
<stop stop-color="white"/>
<stop offset="1" stop-color="white" stop-opacity="0"/>
</linearGradient>
<linearGradient id="paint12_linear_51_729" x1="444" y1="0" x2="444" y2="891.402" gradientUnits="userSpaceOnUse">
<stop stop-color="white"/>
<stop offset="1" stop-color="white" stop-opacity="0"/>
</linearGradient>
<linearGradient id="paint13_linear_51_729" x1="444" y1="0" x2="444" y2="891.402" gradientUnits="userSpaceOnUse">
<stop stop-color="white"/>
<stop offset="1" stop-color="white" stop-opacity="0"/>
</linearGradient>
<linearGradient id="paint14_linear_51_729" x1="444" y1="0" x2="444" y2="891.402" gradientUnits="userSpaceOnUse">
<stop stop-color="white"/>
<stop offset="1" stop-color="white" stop-opacity="0"/>
</linearGradient>
</defs>
</svg>
