<svg width="819" height="30" viewBox="0 0 819 30" fill="none" xmlns="http://www.w3.org/2000/svg">
<path d="M191.499 20.449L197.055 8.26392C197.155 8.04423 197.3 7.84861 197.482 7.69044C197.665 7.53226 197.879 7.41526 198.11 7.34741C198.342 7.27957 198.585 7.26248 198.824 7.29732C199.062 7.33216 199.291 7.4181 199.493 7.54928C199.764 7.72389 199.98 7.97208 200.112 8.26517L203.237 15.1148L191.499 20.449ZM198.583 0.793217C197.017 0.791295 195.484 1.23933 194.166 2.08398C192.847 2.92863 191.799 4.13432 191.147 5.55751L182 25.6374L186.298 29.9327L205.929 21.0215L209.256 28.3238L215.168 25.6436L206.02 5.58495C205.367 4.16133 204.319 2.95526 203.001 2.11036C201.682 1.26546 200.149 0.817356 198.583 0.819408V0.793217ZM244.094 3.82765L234.688 23.5845C234.024 24.9798 232.978 26.1583 231.671 26.983C230.365 27.8078 228.851 28.245 227.306 28.244C225.761 28.2433 224.248 27.8053 222.942 26.9808C221.636 26.1562 220.59 24.9787 219.925 23.5845L210.518 3.80395L216.381 1.0227C216.381 1.0227 221.749 12.2811 225.788 20.8032C225.924 21.0902 226.139 21.3326 226.407 21.5023C226.676 21.6721 226.987 21.7622 227.304 21.7622C227.622 21.7622 227.933 21.6721 228.202 21.5023C228.47 21.3326 228.685 21.0902 228.821 20.8032L238.231 1.0227L244.094 3.82765ZM258.622 23.0257C256.948 23.0248 255.313 22.5287 253.921 21.5998C252.53 20.671 251.444 19.351 250.802 17.8062C250.16 16.2616 249.992 14.5614 250.319 12.9212C250.645 11.281 251.451 9.77465 252.635 8.59318C253.819 7.40953 255.327 6.60329 256.969 6.2763C258.61 5.94932 260.312 6.11627 261.859 6.75606C263.404 7.39513 264.726 8.47737 265.657 9.86634C266.588 11.2553 267.087 12.8889 267.091 14.561C267.091 15.6718 266.871 16.7716 266.445 17.7975C266.019 18.8234 265.395 19.7553 264.609 20.5401C263.02 22.1257 260.867 23.0165 258.622 23.017V23.0257ZM258.622 0C255.738 0 252.918 0.855577 250.521 2.45573C248.125 4.05633 246.257 6.33031 245.152 8.99104C244.048 11.6519 243.759 14.5805 244.323 17.4056C244.886 20.2307 246.275 22.8248 248.315 24.8591C250.355 26.8959 252.953 28.2826 255.781 28.8442C258.609 29.4058 261.54 29.1171 264.204 28.0145C266.867 26.9124 269.144 25.0463 270.748 22.6516C272.35 20.2576 273.205 17.4417 273.205 14.561C273.204 12.6484 272.826 10.7549 272.092 8.98848C271.359 7.2221 270.285 5.61759 268.931 4.26666C266.195 1.53495 262.488 0.00042777 258.622 0Z" fill="url(#paint0_linear_51_742)"/>
<path d="M464.499 20.449L470.055 8.26392C470.154 8.04423 470.3 7.84861 470.482 7.69044C470.665 7.53226 470.879 7.41526 471.11 7.34741C471.342 7.27957 471.585 7.26248 471.824 7.29732C472.062 7.33216 472.291 7.4181 472.493 7.54928C472.764 7.72389 472.98 7.97208 473.112 8.26517L476.237 15.1148L464.499 20.449ZM471.583 0.793217C470.017 0.791295 468.484 1.23933 467.166 2.08398C465.847 2.92863 464.799 4.13432 464.147 5.55751L455 25.6374L459.298 29.9327L478.929 21.0215L482.256 28.3238L488.168 25.6436L479.02 5.58495C478.367 4.16133 477.319 2.95526 476.001 2.11036C474.682 1.26546 473.149 0.817356 471.583 0.819408V0.793217ZM517.094 3.82765L507.688 23.5845C507.024 24.9798 505.978 26.1583 504.671 26.983C503.365 27.8078 501.851 28.245 500.306 28.244C498.761 28.2433 497.248 27.8053 495.942 26.9808C494.636 26.1562 493.59 24.9787 492.925 23.5845L483.518 3.80395L489.381 1.0227C489.381 1.0227 494.749 12.2811 498.788 20.8032C498.924 21.0902 499.139 21.3326 499.407 21.5023C499.676 21.6721 499.987 21.7622 500.304 21.7622C500.622 21.7622 500.933 21.6721 501.202 21.5023C501.47 21.3326 501.685 21.0902 501.821 20.8032L511.231 1.0227L517.094 3.82765ZM531.622 23.0257C529.948 23.0248 528.313 22.5287 526.921 21.5998C525.53 20.671 524.444 19.351 523.802 17.8062C523.16 16.2616 522.992 14.5614 523.319 12.9212C523.645 11.281 524.451 9.77465 525.635 8.59318C526.819 7.40953 528.327 6.60329 529.969 6.2763C531.61 5.94932 533.312 6.11627 534.859 6.75606C536.404 7.39513 537.726 8.47737 538.657 9.86634C539.588 11.2553 540.087 12.8889 540.091 14.561C540.091 15.6718 539.871 16.7716 539.445 17.7975C539.019 18.8234 538.395 19.7553 537.609 20.5401C536.02 22.1257 533.867 23.0165 531.622 23.017V23.0257ZM531.622 0C528.738 0 525.918 0.855577 523.521 2.45573C521.125 4.05633 519.257 6.33031 518.152 8.99104C517.048 11.6519 516.76 14.5805 517.323 17.4056C517.886 20.2307 519.275 22.8248 521.315 24.8591C523.355 26.8959 525.953 28.2826 528.781 28.8442C531.609 29.4058 534.54 29.1171 537.204 28.0145C539.867 26.9124 542.144 25.0463 543.748 22.6516C545.35 20.2576 546.205 17.4417 546.205 14.561C546.204 12.6484 545.826 10.7549 545.092 8.98848C544.359 7.2221 543.285 5.61759 541.931 4.26666C539.195 1.53495 535.487 0.00042777 531.622 0Z" fill="url(#paint1_linear_51_742)"/>
<path d="M9.49865 20.449L15.0549 8.26392C15.1545 8.04423 15.3003 7.84861 15.4824 7.69044C15.6646 7.53226 15.8787 7.41526 16.1102 7.34741C16.3416 7.27957 16.585 7.26248 16.8237 7.29732C17.0624 7.33216 17.2908 7.4181 17.4932 7.54928C17.7638 7.72389 17.9796 7.97208 18.1118 8.26517L21.2373 15.1148L9.49865 20.449ZM16.5827 0.793217C15.0171 0.791295 13.4838 1.23933 12.1656 2.08398C10.8473 2.92863 9.7995 4.13432 9.14694 5.55751L0 25.6374L4.29784 29.9327L23.9287 21.0215L27.2562 28.3238L33.1679 25.6436L24.0198 5.58495C23.3673 4.16133 22.3194 2.95526 21.0009 2.11036C19.6823 1.26546 18.1487 0.817356 16.5827 0.819408V0.793217ZM62.0942 3.82765L52.6878 23.5845C52.024 24.9798 50.978 26.1583 49.6713 26.983C48.3647 27.8078 46.8509 28.245 45.3057 28.244C43.761 28.2433 42.2481 27.8053 40.9419 26.9808C39.6358 26.1562 38.5897 24.9787 37.9248 23.5845L28.5184 3.80395L34.3815 1.0227C34.3815 1.0227 39.7494 12.2811 43.7878 20.8032C43.924 21.0902 44.1388 21.3326 44.4073 21.5023C44.6757 21.6721 44.9868 21.7622 45.3044 21.7622C45.622 21.7622 45.9331 21.6721 46.2016 21.5023C46.47 21.3326 46.6848 21.0902 46.821 20.8032L56.2311 1.0227L62.0942 3.82765ZM76.6215 23.0257C74.9484 23.0248 73.313 22.5287 71.9214 21.5998C70.5298 20.671 69.4443 19.351 68.8016 17.8062C68.1605 16.2616 67.9924 14.5614 68.3188 12.9212C68.6452 11.281 69.4513 9.77465 70.635 8.59318C71.8188 7.40953 73.3268 6.60329 74.9686 6.2763C76.6104 5.94932 78.3123 6.11627 79.8593 6.75606C81.4045 7.39513 82.726 8.47737 83.657 9.86634C84.5881 11.2553 85.0872 12.8889 85.0912 14.561C85.0905 15.6718 84.871 16.7716 84.4451 17.7975C84.0193 18.8234 83.3955 19.7553 82.6093 20.5401C81.0199 22.1257 78.8666 23.0165 76.6215 23.017V23.0257ZM76.6215 0C73.738 0 70.9181 0.855577 68.521 2.45573C66.1253 4.05633 64.2571 6.33031 63.1518 8.99104C62.0481 11.6519 61.7595 14.5805 62.3226 17.4056C62.8857 20.2307 64.2752 22.8248 66.3147 24.8591C68.3552 26.8959 70.9534 28.2826 73.7813 28.8442C76.6092 29.4058 79.54 29.1171 82.204 28.0145C84.8671 26.9124 87.1442 25.0463 88.748 22.6516C90.3503 20.2576 91.2054 17.4417 91.205 14.561C91.2039 12.6484 90.8258 10.7549 90.0924 8.98848C89.359 7.2221 88.2847 5.61759 86.9309 4.26666C84.1953 1.53495 80.4875 0.00042777 76.6215 0Z" fill="url(#paint2_linear_51_742)"/>
<path d="M282.499 20.449L288.055 8.26392C288.154 8.04423 288.3 7.84861 288.482 7.69044C288.665 7.53226 288.879 7.41526 289.11 7.34741C289.342 7.27957 289.585 7.26248 289.824 7.29732C290.062 7.33216 290.291 7.4181 290.493 7.54928C290.764 7.72389 290.98 7.97208 291.112 8.26517L294.237 15.1148L282.499 20.449ZM289.583 0.793217C288.017 0.791295 286.484 1.23933 285.166 2.08398C283.847 2.92863 282.799 4.13432 282.147 5.55751L273 25.6374L277.298 29.9327L296.929 21.0215L300.256 28.3238L306.168 25.6436L297.02 5.58495C296.367 4.16133 295.319 2.95526 294.001 2.11036C292.682 1.26546 291.149 0.817356 289.583 0.819408V0.793217ZM335.094 3.82765L325.688 23.5845C325.024 24.9798 323.978 26.1583 322.671 26.983C321.365 27.8078 319.851 28.245 318.306 28.244C316.761 28.2433 315.248 27.8053 313.942 26.9808C312.636 26.1562 311.59 24.9787 310.925 23.5845L301.518 3.80395L307.381 1.0227C307.381 1.0227 312.749 12.2811 316.788 20.8032C316.924 21.0902 317.139 21.3326 317.407 21.5023C317.676 21.6721 317.987 21.7622 318.304 21.7622C318.622 21.7622 318.933 21.6721 319.202 21.5023C319.47 21.3326 319.685 21.0902 319.821 20.8032L329.231 1.0227L335.094 3.82765ZM349.622 23.0257C347.948 23.0248 346.313 22.5287 344.921 21.5998C343.53 20.671 342.444 19.351 341.802 17.8062C341.16 16.2616 340.992 14.5614 341.319 12.9212C341.645 11.281 342.451 9.77465 343.635 8.59318C344.819 7.40953 346.327 6.60329 347.969 6.2763C349.61 5.94932 351.312 6.11627 352.859 6.75606C354.404 7.39513 355.726 8.47737 356.657 9.86634C357.588 11.2553 358.087 12.8889 358.091 14.561C358.091 15.6718 357.871 16.7716 357.445 17.7975C357.019 18.8234 356.395 19.7553 355.609 20.5401C354.02 22.1257 351.867 23.0165 349.622 23.017V23.0257ZM349.622 0C346.738 0 343.918 0.855577 341.521 2.45573C339.125 4.05633 337.257 6.33031 336.152 8.99104C335.048 11.6519 334.759 14.5805 335.323 17.4056C335.886 20.2307 337.275 22.8248 339.315 24.8591C341.355 26.8959 343.953 28.2826 346.781 28.8442C349.609 29.4058 352.54 29.1171 355.204 28.0145C357.867 26.9124 360.144 25.0463 361.748 22.6516C363.35 20.2576 364.205 17.4417 364.205 14.561C364.204 12.6484 363.826 10.7549 363.092 8.98848C362.359 7.2221 361.285 5.61759 359.931 4.26666C357.195 1.53495 353.488 0.00042777 349.622 0Z" fill="url(#paint3_linear_51_742)"/>
<path d="M555.499 20.449L561.055 8.26392C561.155 8.04423 561.3 7.84861 561.482 7.69044C561.665 7.53226 561.879 7.41526 562.11 7.34741C562.342 7.27957 562.585 7.26248 562.824 7.29732C563.062 7.33216 563.291 7.4181 563.493 7.54928C563.764 7.72389 563.98 7.97208 564.112 8.26517L567.237 15.1148L555.499 20.449ZM562.583 0.793217C561.017 0.791295 559.484 1.23933 558.166 2.08398C556.847 2.92863 555.799 4.13432 555.147 5.55751L546 25.6374L550.298 29.9327L569.929 21.0215L573.256 28.3238L579.168 25.6436L570.02 5.58495C569.367 4.16133 568.319 2.95526 567.001 2.11036C565.682 1.26546 564.149 0.817356 562.583 0.819408V0.793217ZM608.094 3.82765L598.688 23.5845C598.024 24.9798 596.978 26.1583 595.671 26.983C594.365 27.8078 592.851 28.245 591.306 28.244C589.761 28.2433 588.248 27.8053 586.942 26.9808C585.636 26.1562 584.59 24.9787 583.925 23.5845L574.518 3.80395L580.381 1.0227C580.381 1.0227 585.749 12.2811 589.788 20.8032C589.924 21.0902 590.139 21.3326 590.407 21.5023C590.676 21.6721 590.987 21.7622 591.304 21.7622C591.622 21.7622 591.933 21.6721 592.202 21.5023C592.47 21.3326 592.685 21.0902 592.821 20.8032L602.231 1.0227L608.094 3.82765ZM622.622 23.0257C620.948 23.0248 619.313 22.5287 617.921 21.5998C616.53 20.671 615.444 19.351 614.802 17.8062C614.16 16.2616 613.992 14.5614 614.319 12.9212C614.645 11.281 615.451 9.77465 616.635 8.59318C617.819 7.40953 619.327 6.60329 620.969 6.2763C622.61 5.94932 624.312 6.11627 625.859 6.75606C627.404 7.39513 628.726 8.47737 629.657 9.86634C630.588 11.2553 631.087 12.8889 631.091 14.561C631.091 15.6718 630.871 16.7716 630.445 17.7975C630.019 18.8234 629.395 19.7553 628.609 20.5401C627.02 22.1257 624.867 23.0165 622.622 23.017V23.0257ZM622.622 0C619.738 0 616.918 0.855577 614.521 2.45573C612.125 4.05633 610.257 6.33031 609.152 8.99104C608.048 11.6519 607.76 14.5805 608.323 17.4056C608.886 20.2307 610.275 22.8248 612.315 24.8591C614.355 26.8959 616.953 28.2826 619.781 28.8442C622.609 29.4058 625.54 29.1171 628.204 28.0145C630.867 26.9124 633.144 25.0463 634.748 22.6516C636.35 20.2576 637.205 17.4417 637.205 14.561C637.204 12.6484 636.826 10.7549 636.092 8.98848C635.359 7.2221 634.285 5.61759 632.931 4.26666C630.195 1.53495 626.487 0.00042777 622.622 0Z" fill="url(#paint4_linear_51_742)"/>
<path d="M100.499 20.449L106.055 8.26392C106.155 8.04423 106.3 7.84861 106.482 7.69044C106.665 7.53226 106.879 7.41526 107.11 7.34741C107.342 7.27957 107.585 7.26248 107.824 7.29732C108.062 7.33216 108.291 7.4181 108.493 7.54928C108.764 7.72389 108.98 7.97208 109.112 8.26517L112.237 15.1148L100.499 20.449ZM107.583 0.793217C106.017 0.791295 104.484 1.23933 103.166 2.08398C101.847 2.92863 100.799 4.13432 100.147 5.55751L91 25.6374L95.2978 29.9327L114.929 21.0215L118.256 28.3238L124.168 25.6436L115.02 5.58495C114.367 4.16133 113.319 2.95526 112.001 2.11036C110.682 1.26546 109.149 0.817356 107.583 0.819408V0.793217ZM153.094 3.82765L143.688 23.5845C143.024 24.9798 141.978 26.1583 140.671 26.983C139.365 27.8078 137.851 28.245 136.306 28.244C134.761 28.2433 133.248 27.8053 131.942 26.9808C130.636 26.1562 129.59 24.9787 128.925 23.5845L119.518 3.80395L125.381 1.0227C125.381 1.0227 130.749 12.2811 134.788 20.8032C134.924 21.0902 135.139 21.3326 135.407 21.5023C135.676 21.6721 135.987 21.7622 136.304 21.7622C136.622 21.7622 136.933 21.6721 137.202 21.5023C137.47 21.3326 137.685 21.0902 137.821 20.8032L147.231 1.0227L153.094 3.82765ZM167.622 23.0257C165.948 23.0248 164.313 22.5287 162.921 21.5998C161.53 20.671 160.444 19.351 159.802 17.8062C159.16 16.2616 158.992 14.5614 159.319 12.9212C159.645 11.281 160.451 9.77465 161.635 8.59318C162.819 7.40953 164.327 6.60329 165.969 6.2763C167.61 5.94932 169.312 6.11627 170.859 6.75606C172.404 7.39513 173.726 8.47737 174.657 9.86634C175.588 11.2553 176.087 12.8889 176.091 14.561C176.091 15.6718 175.871 16.7716 175.445 17.7975C175.019 18.8234 174.395 19.7553 173.609 20.5401C172.02 22.1257 169.867 23.0165 167.622 23.017V23.0257ZM167.622 0C164.738 0 161.918 0.855577 159.521 2.45573C157.125 4.05633 155.257 6.33031 154.152 8.99104C153.048 11.6519 152.759 14.5805 153.323 17.4056C153.886 20.2307 155.275 22.8248 157.315 24.8591C159.355 26.8959 161.953 28.2826 164.781 28.8442C167.609 29.4058 170.54 29.1171 173.204 28.0145C175.867 26.9124 178.144 25.0463 179.748 22.6516C181.35 20.2576 182.205 17.4417 182.205 14.561C182.204 12.6484 181.826 10.7549 181.092 8.98848C180.359 7.2221 179.285 5.61759 177.931 4.26666C175.195 1.53495 171.487 0.00042777 167.622 0Z" fill="url(#paint5_linear_51_742)"/>
<path d="M373.499 20.449L379.055 8.26392C379.154 8.04423 379.3 7.84861 379.482 7.69044C379.665 7.53226 379.879 7.41526 380.11 7.34741C380.342 7.27957 380.585 7.26248 380.824 7.29732C381.062 7.33216 381.291 7.4181 381.493 7.54928C381.764 7.72389 381.98 7.97208 382.112 8.26517L385.237 15.1148L373.499 20.449ZM380.583 0.793217C379.017 0.791295 377.484 1.23933 376.166 2.08398C374.847 2.92863 373.799 4.13432 373.147 5.55751L364 25.6374L368.298 29.9327L387.929 21.0215L391.256 28.3238L397.168 25.6436L388.02 5.58495C387.367 4.16133 386.319 2.95526 385.001 2.11036C383.682 1.26546 382.149 0.817356 380.583 0.819408V0.793217ZM426.094 3.82765L416.688 23.5845C416.024 24.9798 414.978 26.1583 413.671 26.983C412.365 27.8078 410.851 28.245 409.306 28.244C407.761 28.2433 406.248 27.8053 404.942 26.9808C403.636 26.1562 402.59 24.9787 401.925 23.5845L392.518 3.80395L398.381 1.0227C398.381 1.0227 403.749 12.2811 407.788 20.8032C407.924 21.0902 408.139 21.3326 408.407 21.5023C408.676 21.6721 408.987 21.7622 409.304 21.7622C409.622 21.7622 409.933 21.6721 410.202 21.5023C410.47 21.3326 410.685 21.0902 410.821 20.8032L420.231 1.0227L426.094 3.82765ZM440.622 23.0257C438.948 23.0248 437.313 22.5287 435.921 21.5998C434.53 20.671 433.444 19.351 432.802 17.8062C432.16 16.2616 431.992 14.5614 432.319 12.9212C432.645 11.281 433.451 9.77465 434.635 8.59318C435.819 7.40953 437.327 6.60329 438.969 6.2763C440.61 5.94932 442.312 6.11627 443.859 6.75606C445.404 7.39513 446.726 8.47737 447.657 9.86634C448.588 11.2553 449.087 12.8889 449.091 14.561C449.091 15.6718 448.871 16.7716 448.445 17.7975C448.019 18.8234 447.395 19.7553 446.609 20.5401C445.02 22.1257 442.867 23.0165 440.622 23.017V23.0257ZM440.622 0C437.738 0 434.918 0.855577 432.521 2.45573C430.125 4.05633 428.257 6.33031 427.152 8.99104C426.048 11.6519 425.759 14.5805 426.323 17.4056C426.886 20.2307 428.275 22.8248 430.315 24.8591C432.355 26.8959 434.953 28.2826 437.781 28.8442C440.609 29.4058 443.54 29.1171 446.204 28.0145C448.867 26.9124 451.144 25.0463 452.748 22.6516C454.35 20.2576 455.205 17.4417 455.205 14.561C455.204 12.6484 454.826 10.7549 454.092 8.98848C453.359 7.2221 452.285 5.61759 450.931 4.26666C448.195 1.53495 444.488 0.00042777 440.622 0Z" fill="url(#paint6_linear_51_742)"/>
<path d="M646.499 20.449L652.055 8.26392C652.155 8.04423 652.3 7.84861 652.482 7.69044C652.665 7.53226 652.879 7.41526 653.11 7.34741C653.342 7.27957 653.585 7.26248 653.824 7.29732C654.062 7.33216 654.291 7.4181 654.493 7.54928C654.764 7.72389 654.98 7.97208 655.112 8.26517L658.237 15.1148L646.499 20.449ZM653.583 0.793217C652.017 0.791295 650.484 1.23933 649.166 2.08398C647.847 2.92863 646.799 4.13432 646.147 5.55751L637 25.6374L641.298 29.9327L660.929 21.0215L664.256 28.3238L670.168 25.6436L661.02 5.58495C660.367 4.16133 659.319 2.95526 658.001 2.11036C656.682 1.26546 655.149 0.817356 653.583 0.819408V0.793217ZM699.094 3.82765L689.688 23.5845C689.024 24.9798 687.978 26.1583 686.671 26.983C685.365 27.8078 683.851 28.245 682.306 28.244C680.761 28.2433 679.248 27.8053 677.942 26.9808C676.636 26.1562 675.59 24.9787 674.925 23.5845L665.518 3.80395L671.381 1.0227C671.381 1.0227 676.749 12.2811 680.788 20.8032C680.924 21.0902 681.139 21.3326 681.407 21.5023C681.676 21.6721 681.987 21.7622 682.304 21.7622C682.622 21.7622 682.933 21.6721 683.202 21.5023C683.47 21.3326 683.685 21.0902 683.821 20.8032L693.231 1.0227L699.094 3.82765ZM713.622 23.0257C711.948 23.0248 710.313 22.5287 708.921 21.5998C707.53 20.671 706.444 19.351 705.802 17.8062C705.16 16.2616 704.992 14.5614 705.319 12.9212C705.645 11.281 706.451 9.77465 707.635 8.59318C708.819 7.40953 710.327 6.60329 711.969 6.2763C713.61 5.94932 715.312 6.11627 716.859 6.75606C718.404 7.39513 719.726 8.47737 720.657 9.86634C721.588 11.2553 722.087 12.8889 722.091 14.561C722.091 15.6718 721.871 16.7716 721.445 17.7975C721.019 18.8234 720.395 19.7553 719.609 20.5401C718.02 22.1257 715.867 23.0165 713.622 23.017V23.0257ZM713.622 0C710.738 0 707.918 0.855577 705.521 2.45573C703.125 4.05633 701.257 6.33031 700.152 8.99104C699.048 11.6519 698.76 14.5805 699.323 17.4056C699.886 20.2307 701.275 22.8248 703.315 24.8591C705.355 26.8959 707.953 28.2826 710.781 28.8442C713.609 29.4058 716.54 29.1171 719.204 28.0145C721.867 26.9124 724.144 25.0463 725.748 22.6516C727.35 20.2576 728.205 17.4417 728.205 14.561C728.204 12.6484 727.826 10.7549 727.092 8.98848C726.359 7.2221 725.285 5.61759 723.931 4.26666C721.195 1.53495 717.487 0.00042777 713.622 0Z" fill="url(#paint7_linear_51_742)"/>
<path d="M737.294 20.5163L742.85 8.3312C742.95 8.11151 743.095 7.91589 743.277 7.75772C743.46 7.59954 743.674 7.48254 743.905 7.41469C744.137 7.34685 744.38 7.32976 744.619 7.3646C744.857 7.39944 745.086 7.48538 745.288 7.61656C745.559 7.79117 745.775 8.03936 745.907 8.33245L749.032 15.1821L737.294 20.5163ZM744.378 0.860497C742.812 0.858575 741.279 1.30661 739.961 2.15126C738.642 2.99591 737.594 4.2016 736.942 5.62479L727.795 25.7047L732.093 30L751.724 21.0888L755.051 28.3911L760.963 25.7109L751.815 5.65223C751.162 4.22861 750.114 3.02254 748.796 2.17764C747.477 1.33274 745.944 0.884636 744.378 0.886688V0.860497ZM789.889 3.89493L780.483 23.6518C779.819 25.0471 778.773 26.2255 777.466 27.0503C776.16 27.8751 774.646 28.3123 773.101 28.3113C771.556 28.3106 770.043 27.8726 768.737 27.048C767.431 26.2235 766.385 25.046 765.72 23.6518L756.313 3.87123L762.176 1.08998C762.176 1.08998 767.544 12.3484 771.583 20.8705C771.719 21.1575 771.934 21.3999 772.202 21.5696C772.471 21.7394 772.782 21.8295 773.099 21.8295C773.417 21.8295 773.728 21.7394 773.997 21.5696C774.265 21.3999 774.48 21.1575 774.616 20.8705L784.026 1.08998L789.889 3.89493ZM804.417 23.093C802.743 23.0921 801.108 22.596 799.716 21.6671C798.325 20.7383 797.239 19.4183 796.597 17.8735C795.955 16.3289 795.787 14.6287 796.114 12.9885C796.44 11.3483 797.246 9.84193 798.43 8.66046C799.614 7.47681 801.122 6.67057 802.764 6.34358C804.405 6.0166 806.107 6.18355 807.654 6.82334C809.199 7.46241 810.521 8.54465 811.452 9.93362C812.383 11.3226 812.882 12.9561 812.886 14.6283C812.885 15.7391 812.666 16.8388 812.24 17.8647C811.814 18.8907 811.19 19.8226 810.404 20.6074C808.815 22.193 806.662 23.0838 804.417 23.0843V23.093ZM804.417 0.0672798C801.533 0.0672798 798.713 0.922857 796.316 2.52301C793.92 4.12361 792.052 6.39759 790.947 9.05832C789.843 11.7191 789.555 14.6478 790.118 17.4729C790.681 20.2979 792.07 22.8921 794.11 24.9264C796.15 26.9632 798.748 28.3499 801.576 28.9115C804.404 29.4731 807.335 29.1844 809.999 28.0818C812.662 26.9797 814.939 25.1136 816.543 22.7189C818.145 20.3249 819 17.509 819 14.6283C818.999 12.7157 818.621 10.8221 817.887 9.05576C817.154 7.28938 816.08 5.68487 814.726 4.33394C811.99 1.60223 808.282 0.0677076 804.417 0.0672798Z" fill="url(#paint8_linear_51_742)"/>
<defs>
<linearGradient id="paint0_linear_51_742" x1="0" y1="15" x2="819" y2="15" gradientUnits="userSpaceOnUse">
<stop stop-color="white" stop-opacity="0.05"/>
<stop offset="0.753946" stop-color="white" stop-opacity="0.5"/>
<stop offset="1" stop-color="white" stop-opacity="0.05"/>
</linearGradient>
<linearGradient id="paint1_linear_51_742" x1="0" y1="15" x2="819" y2="15" gradientUnits="userSpaceOnUse">
<stop stop-color="white" stop-opacity="0.05"/>
<stop offset="0.753946" stop-color="white" stop-opacity="0.5"/>
<stop offset="1" stop-color="white" stop-opacity="0.05"/>
</linearGradient>
<linearGradient id="paint2_linear_51_742" x1="0" y1="15" x2="819" y2="15" gradientUnits="userSpaceOnUse">
<stop stop-color="white" stop-opacity="0.05"/>
<stop offset="0.753946" stop-color="white" stop-opacity="0.5"/>
<stop offset="1" stop-color="white" stop-opacity="0.05"/>
</linearGradient>
<linearGradient id="paint3_linear_51_742" x1="0" y1="15" x2="819" y2="15" gradientUnits="userSpaceOnUse">
<stop stop-color="white" stop-opacity="0.05"/>
<stop offset="0.753946" stop-color="white" stop-opacity="0.5"/>
<stop offset="1" stop-color="white" stop-opacity="0.05"/>
</linearGradient>
<linearGradient id="paint4_linear_51_742" x1="0" y1="15" x2="819" y2="15" gradientUnits="userSpaceOnUse">
<stop stop-color="white" stop-opacity="0.05"/>
<stop offset="0.753946" stop-color="white" stop-opacity="0.5"/>
<stop offset="1" stop-color="white" stop-opacity="0.05"/>
</linearGradient>
<linearGradient id="paint5_linear_51_742" x1="0" y1="15" x2="819" y2="15" gradientUnits="userSpaceOnUse">
<stop stop-color="white" stop-opacity="0.05"/>
<stop offset="0.753946" stop-color="white" stop-opacity="0.5"/>
<stop offset="1" stop-color="white" stop-opacity="0.05"/>
</linearGradient>
<linearGradient id="paint6_linear_51_742" x1="0" y1="15" x2="819" y2="15" gradientUnits="userSpaceOnUse">
<stop stop-color="white" stop-opacity="0.05"/>
<stop offset="0.753946" stop-color="white" stop-opacity="0.5"/>
<stop offset="1" stop-color="white" stop-opacity="0.05"/>
</linearGradient>
<linearGradient id="paint7_linear_51_742" x1="0" y1="15" x2="819" y2="15" gradientUnits="userSpaceOnUse">
<stop stop-color="white" stop-opacity="0.05"/>
<stop offset="0.753946" stop-color="white" stop-opacity="0.5"/>
<stop offset="1" stop-color="white" stop-opacity="0.05"/>
</linearGradient>
<linearGradient id="paint8_linear_51_742" x1="0" y1="15" x2="819" y2="15" gradientUnits="userSpaceOnUse">
<stop stop-color="white" stop-opacity="0.05"/>
<stop offset="0.753946" stop-color="white" stop-opacity="0.5"/>
<stop offset="1" stop-color="white" stop-opacity="0.05"/>
</linearGradient>
</defs>
</svg>
