<svg width="983" height="54" viewBox="0 0 983 54" fill="none" xmlns="http://www.w3.org/2000/svg">
<path d="M17.0591 36.891L27.0379 14.9085C27.2168 14.5122 27.4787 14.1593 27.8058 13.8739C28.1328 13.5886 28.5174 13.3775 28.9331 13.2551C29.3488 13.1327 29.7859 13.1019 30.2146 13.1647C30.6433 13.2276 31.0534 13.3826 31.417 13.6193C31.903 13.9342 32.2905 14.382 32.5279 14.9107L38.1412 27.2678L17.0591 36.891ZM29.7818 1.431C26.97 1.42753 24.2164 2.23581 21.8488 3.7596C19.4812 5.28339 17.5994 7.45851 16.4275 10.026L0 46.251L7.71872 54L42.9749 37.9237L48.951 51.0975L59.5681 46.2623L43.1384 10.0755C41.9666 7.50724 40.0846 5.33142 37.7166 3.80719C35.3486 2.28295 32.5943 1.47455 29.7818 1.47825V1.431ZM111.518 6.90525L94.6249 42.5475C93.4327 45.0647 91.5542 47.1907 89.2075 48.6786C86.8607 50.1665 84.142 50.9553 81.3669 50.9535C78.5928 50.9522 75.8756 50.1621 73.5298 48.6745C71.184 47.187 69.3054 45.0627 68.1111 42.5475L51.2177 6.8625L61.7475 1.845C61.7475 1.845 71.3881 22.1557 78.6409 37.53C78.8855 38.0477 79.2713 38.485 79.7534 38.7912C80.2355 39.0974 80.7942 39.26 81.3647 39.26C81.9351 39.26 82.4938 39.0974 82.9759 38.7912C83.4581 38.485 83.8438 38.0477 84.0884 37.53L100.988 1.845L111.518 6.90525ZM137.609 41.5395C134.604 41.5378 131.667 40.6428 129.168 38.9671C126.668 37.2914 124.719 34.9101 123.565 32.1233C122.413 29.3367 122.111 26.2695 122.697 23.3105C123.284 20.3514 124.731 17.6339 126.857 15.5025C128.983 13.3671 131.692 11.9126 134.64 11.3227C137.589 10.7329 140.645 11.034 143.424 12.1882C146.199 13.3412 148.572 15.2936 150.244 17.7993C151.916 20.3051 152.813 23.2521 152.82 26.2688C152.819 28.2727 152.424 30.2567 151.66 32.1074C150.895 33.9582 149.774 35.6395 148.363 37.0552C145.508 39.9158 141.641 41.5228 137.609 41.5238V41.5395ZM137.609 0C132.43 0 127.366 1.5435 123.061 4.43025C118.758 7.31781 115.403 11.4202 113.418 16.2203C111.436 21.0205 110.917 26.3039 111.929 31.4005C112.94 36.497 115.435 41.1771 119.098 44.847C122.763 48.5215 127.429 51.0232 132.508 52.0363C137.587 53.0494 142.85 52.5286 147.635 50.5395C152.417 48.5512 156.507 45.1846 159.387 40.8645C162.265 36.5457 163.801 31.4656 163.8 26.2688C163.798 22.8184 163.119 19.4022 161.802 16.2156C160.485 13.029 158.555 10.1344 156.124 7.69725C151.211 2.76912 144.552 0.000771717 137.609 0Z" fill="url(#paint0_linear_63_1085)"/>
<path d="M180.859 36.891L190.838 14.9085C191.017 14.5122 191.279 14.1593 191.606 13.8739C191.933 13.5886 192.317 13.3775 192.733 13.2551C193.149 13.1327 193.586 13.1019 194.015 13.1647C194.443 13.2276 194.853 13.3826 195.217 13.6193C195.703 13.9342 196.091 14.382 196.328 14.9107L201.941 27.2678L180.859 36.891ZM193.582 1.431C190.77 1.42753 188.016 2.23581 185.649 3.7596C183.281 5.28339 181.4 7.45851 180.228 10.026L163.8 46.251L171.519 54L206.775 37.9237L212.751 51.0975L223.368 46.2623L206.938 10.0755C205.767 7.50724 203.885 5.33142 201.517 3.80719C199.149 2.28295 196.394 1.47455 193.582 1.47825V1.431ZM275.318 6.90525L258.425 42.5475C257.233 45.0647 255.354 47.1907 253.007 48.6786C250.661 50.1665 247.942 50.9553 245.167 50.9535C242.393 50.9522 239.676 50.1621 237.33 48.6745C234.984 47.187 233.105 45.0627 231.911 42.5475L215.018 6.8625L225.548 1.845C225.548 1.845 235.188 22.1557 242.441 37.53C242.686 38.0477 243.071 38.485 243.553 38.7912C244.036 39.0974 244.594 39.26 245.165 39.26C245.735 39.26 246.294 39.0974 246.776 38.7912C247.258 38.485 247.644 38.0477 247.888 37.53L264.789 1.845L275.318 6.90525ZM301.409 41.5395C298.404 41.5378 295.467 40.6428 292.968 38.9671C290.468 37.2914 288.519 34.9101 287.365 32.1233C286.213 29.3367 285.911 26.2695 286.498 23.3105C287.084 20.3514 288.531 17.6339 290.657 15.5025C292.783 13.3671 295.492 11.9126 298.44 11.3227C301.389 10.7329 304.445 11.034 307.224 12.1882C309.999 13.3412 312.372 15.2936 314.044 17.7993C315.716 20.3051 316.613 23.2521 316.62 26.2688C316.619 28.2727 316.224 30.2567 315.46 32.1074C314.695 33.9582 313.574 35.6395 312.163 37.0552C309.308 39.9158 305.441 41.5228 301.409 41.5238V41.5395ZM301.409 0C296.23 0 291.166 1.5435 286.861 4.43025C282.558 7.31781 279.203 11.4202 277.218 16.2203C275.236 21.0205 274.717 26.3039 275.729 31.4005C276.74 36.497 279.235 41.1771 282.898 44.847C286.563 48.5215 291.229 51.0232 296.308 52.0363C301.387 53.0494 306.65 52.5286 311.435 50.5395C316.217 48.5512 320.307 45.1846 323.187 40.8645C326.065 36.5457 327.601 31.4656 327.6 26.2688C327.598 22.8184 326.919 19.4022 325.602 16.2156C324.285 13.029 322.355 10.1344 319.924 7.69725C315.011 2.76912 308.352 0.000771717 301.409 0Z" fill="url(#paint1_linear_63_1085)"/>
<path d="M344.659 36.891L354.638 14.9085C354.817 14.5122 355.079 14.1593 355.406 13.8739C355.733 13.5886 356.117 13.3775 356.533 13.2551C356.949 13.1327 357.386 13.1019 357.815 13.1647C358.243 13.2276 358.654 13.3826 359.017 13.6193C359.503 13.9342 359.891 14.382 360.128 14.9107L365.741 27.2678L344.659 36.891ZM357.382 1.431C354.57 1.42753 351.816 2.23581 349.449 3.7596C347.081 5.28339 345.2 7.45851 344.028 10.026L327.6 46.251L335.319 54L370.575 37.9237L376.551 51.0975L387.168 46.2623L370.738 10.0755C369.567 7.50724 367.685 5.33142 365.317 3.80719C362.949 2.28295 360.194 1.47455 357.382 1.47825V1.431ZM439.118 6.90525L422.225 42.5475C421.033 45.0647 419.154 47.1907 416.808 48.6786C414.461 50.1665 411.742 50.9553 408.967 50.9535C406.193 50.9522 403.476 50.1621 401.13 48.6745C398.784 47.187 396.905 45.0627 395.711 42.5475L378.818 6.8625L389.348 1.845C389.348 1.845 398.988 22.1557 406.241 37.53C406.486 38.0477 406.871 38.485 407.353 38.7912C407.836 39.0974 408.394 39.26 408.965 39.26C409.535 39.26 410.094 39.0974 410.576 38.7912C411.058 38.485 411.444 38.0477 411.689 37.53L428.589 1.845L439.118 6.90525ZM465.209 41.5395C462.204 41.5378 459.267 40.6428 456.768 38.9671C454.268 37.2914 452.319 34.9101 451.165 32.1233C450.013 29.3367 449.711 26.2695 450.298 23.3105C450.884 20.3514 452.332 17.6339 454.457 15.5025C456.583 13.3671 459.292 11.9126 462.24 11.3227C465.189 10.7329 468.245 11.034 471.024 12.1882C473.799 13.3412 476.172 15.2936 477.844 17.7993C479.516 20.3051 480.413 23.2521 480.42 26.2688C480.419 28.2727 480.025 30.2567 479.26 32.1074C478.495 33.9582 477.374 35.6395 475.963 37.0552C473.108 39.9158 469.241 41.5228 465.209 41.5238V41.5395ZM465.209 0C460.03 0 454.966 1.5435 450.661 4.43025C446.358 7.31781 443.003 11.4202 441.018 16.2203C439.036 21.0205 438.517 26.3039 439.529 31.4005C440.54 36.497 443.035 41.1771 446.698 44.847C450.363 48.5215 455.029 51.0232 460.108 52.0363C465.187 53.0494 470.45 52.5286 475.235 50.5395C480.017 48.5512 484.107 45.1846 486.987 40.8645C489.865 36.5457 491.401 31.4656 491.4 26.2688C491.398 22.8184 490.719 19.4022 489.402 16.2156C488.085 13.029 486.155 10.1344 483.724 7.69725C478.811 2.76912 472.152 0.000771717 465.209 0Z" fill="url(#paint2_linear_63_1085)"/>
<path d="M508.459 36.891L518.438 14.9085C518.617 14.5122 518.879 14.1593 519.206 13.8739C519.533 13.5886 519.918 13.3775 520.333 13.2551C520.749 13.1327 521.186 13.1019 521.615 13.1647C522.043 13.2276 522.454 13.3826 522.817 13.6193C523.303 13.9342 523.691 14.382 523.928 14.9107L529.541 27.2678L508.459 36.891ZM521.182 1.431C518.37 1.42753 515.617 2.23581 513.249 3.7596C510.881 5.28339 509 7.45851 507.828 10.026L491.4 46.251L499.119 54L534.375 37.9237L540.351 51.0975L550.968 46.2623L534.539 10.0755C533.367 7.50724 531.485 5.33142 529.117 3.80719C526.749 2.28295 523.994 1.47455 521.182 1.47825V1.431ZM602.918 6.90525L586.025 42.5475C584.833 45.0647 582.954 47.1907 580.608 48.6786C578.261 50.1665 575.542 50.9553 572.767 50.9535C569.993 50.9522 567.276 50.1621 564.93 48.6745C562.584 47.187 560.706 45.0627 559.511 42.5475L542.618 6.8625L553.148 1.845C553.148 1.845 562.788 22.1557 570.041 37.53C570.286 38.0477 570.671 38.485 571.154 38.7912C571.636 39.0974 572.194 39.26 572.765 39.26C573.335 39.26 573.894 39.0974 574.376 38.7912C574.858 38.485 575.244 38.0477 575.489 37.53L592.389 1.845L602.918 6.90525ZM629.009 41.5395C626.004 41.5378 623.067 40.6428 620.568 38.9671C618.068 37.2914 616.119 34.9101 614.965 32.1233C613.813 29.3367 613.511 26.2695 614.098 23.3105C614.684 20.3514 616.132 17.6339 618.257 15.5025C620.383 13.3671 623.092 11.9126 626.04 11.3227C628.989 10.7329 632.045 11.034 634.824 12.1882C637.599 13.3412 639.972 15.2936 641.644 17.7993C643.317 20.3051 644.213 23.2521 644.22 26.2688C644.219 28.2727 643.825 30.2567 643.06 32.1074C642.295 33.9582 641.175 35.6395 639.763 37.0552C636.908 39.9158 633.041 41.5228 629.009 41.5238V41.5395ZM629.009 0C623.83 0 618.766 1.5435 614.461 4.43025C610.158 7.31781 606.803 11.4202 604.818 16.2203C602.836 21.0205 602.317 26.3039 603.329 31.4005C604.34 36.497 606.835 41.1771 610.498 44.847C614.163 48.5215 618.829 51.0232 623.908 52.0363C628.987 53.0494 634.25 52.5286 639.035 50.5395C643.818 48.5512 647.907 45.1846 650.788 40.8645C653.665 36.5457 655.201 31.4656 655.2 26.2688C655.198 22.8184 654.519 19.4022 653.202 16.2156C651.885 13.029 649.955 10.1344 647.524 7.69725C642.611 2.76912 635.952 0.000771717 629.009 0Z" fill="url(#paint3_linear_63_1085)"/>
<path d="M672.259 36.891L682.238 14.9085C682.417 14.5122 682.679 14.1593 683.006 13.8739C683.333 13.5886 683.718 13.3775 684.133 13.2551C684.549 13.1327 684.986 13.1019 685.415 13.1647C685.843 13.2276 686.254 13.3826 686.617 13.6193C687.103 13.9342 687.491 14.382 687.728 14.9107L693.341 27.2678L672.259 36.891ZM684.982 1.431C682.17 1.42753 679.417 2.23581 677.049 3.7596C674.681 5.28339 672.8 7.45851 671.628 10.026L655.2 46.251L662.919 54L698.175 37.9237L704.151 51.0975L714.768 46.2623L698.339 10.0755C697.167 7.50724 695.285 5.33142 692.917 3.80719C690.549 2.28295 687.794 1.47455 684.982 1.47825V1.431ZM766.719 6.90525L749.825 42.5475C748.633 45.0647 746.754 47.1907 744.408 48.6786C742.061 50.1665 739.342 50.9553 736.567 50.9535C733.793 50.9522 731.076 50.1621 728.73 48.6745C726.384 47.187 724.506 45.0627 723.311 42.5475L706.418 6.8625L716.948 1.845C716.948 1.845 726.588 22.1557 733.841 37.53C734.086 38.0477 734.471 38.485 734.954 38.7912C735.436 39.0974 735.994 39.26 736.565 39.26C737.135 39.26 737.694 39.0974 738.176 38.7912C738.658 38.485 739.044 38.0477 739.289 37.53L756.189 1.845L766.719 6.90525ZM792.809 41.5395C789.804 41.5378 786.867 40.6428 784.368 38.9671C781.868 37.2914 779.919 34.9101 778.765 32.1233C777.613 29.3367 777.311 26.2695 777.898 23.3105C778.484 20.3514 779.932 17.6339 782.057 15.5025C784.183 13.3671 786.892 11.9126 789.84 11.3227C792.789 10.7329 795.846 11.034 798.624 12.1882C801.399 13.3412 803.772 15.2936 805.444 17.7993C807.117 20.3051 808.013 23.2521 808.02 26.2688C808.019 28.2727 807.625 30.2567 806.86 32.1074C806.095 33.9582 804.975 35.6395 803.563 37.0552C800.708 39.9158 796.841 41.5228 792.809 41.5238V41.5395ZM792.809 0C787.63 0 782.566 1.5435 778.261 4.43025C773.958 7.31781 770.603 11.4202 768.618 16.2203C766.636 21.0205 766.117 26.3039 767.129 31.4005C768.14 36.497 770.635 41.1771 774.298 44.847C777.963 48.5215 782.629 51.0232 787.708 52.0363C792.787 53.0494 798.05 52.5286 802.835 50.5395C807.618 48.5512 811.707 45.1846 814.588 40.8645C817.465 36.5457 819.001 31.4656 819 26.2688C818.998 22.8184 818.319 19.4022 817.002 16.2156C815.685 13.029 813.755 10.1344 811.324 7.69725C806.411 2.76912 799.752 0.000771717 792.809 0Z" fill="url(#paint4_linear_63_1085)"/>
<path d="M836.059 36.891L846.038 14.9085C846.217 14.5122 846.479 14.1593 846.806 13.8739C847.133 13.5886 847.518 13.3775 847.933 13.2551C848.349 13.1327 848.786 13.1019 849.215 13.1647C849.643 13.2276 850.054 13.3826 850.417 13.6193C850.903 13.9342 851.291 14.382 851.528 14.9107L857.141 27.2678L836.059 36.891ZM848.782 1.431C845.97 1.42753 843.217 2.23581 840.849 3.7596C838.482 5.28339 836.6 7.45851 835.428 10.026L819 46.251L826.719 54L861.975 37.9237L867.951 51.0975L878.568 46.2623L862.139 10.0755C860.967 7.50724 859.085 5.33142 856.717 3.80719C854.349 2.28295 851.595 1.47455 848.782 1.47825V1.431ZM930.519 6.90525L913.625 42.5475C912.433 45.0647 910.554 47.1907 908.208 48.6786C905.861 50.1665 903.142 50.9553 900.367 50.9535C897.593 50.9522 894.876 50.1621 892.53 48.6745C890.184 47.187 888.306 45.0627 887.111 42.5475L870.218 6.8625L880.748 1.845C880.748 1.845 890.388 22.1557 897.641 37.53C897.886 38.0477 898.272 38.485 898.754 38.7912C899.236 39.0974 899.794 39.26 900.365 39.26C900.935 39.26 901.494 39.0974 901.976 38.7912C902.458 38.485 902.844 38.0477 903.089 37.53L919.989 1.845L930.519 6.90525ZM956.609 41.5395C953.604 41.5378 950.667 40.6428 948.168 38.9671C945.669 37.2914 943.719 34.9101 942.565 32.1233C941.413 29.3367 941.112 26.2695 941.698 23.3105C942.284 20.3514 943.732 17.6339 945.857 15.5025C947.983 13.3671 950.692 11.9126 953.64 11.3227C956.589 10.7329 959.646 11.034 962.424 12.1882C965.199 13.3412 967.572 15.2936 969.244 17.7993C970.917 20.3051 971.813 23.2521 971.82 26.2688C971.819 28.2727 971.425 30.2567 970.66 32.1074C969.895 33.9582 968.775 35.6395 967.363 37.0552C964.508 39.9158 960.641 41.5228 956.609 41.5238V41.5395ZM956.609 0C951.43 0 946.366 1.5435 942.061 4.43025C937.758 7.31781 934.403 11.4202 932.418 16.2203C930.436 21.0205 929.917 26.3039 930.929 31.4005C931.94 36.497 934.435 41.1771 938.098 44.847C941.763 48.5215 946.429 51.0232 951.508 52.0363C956.587 53.0494 961.85 52.5286 966.635 50.5395C971.418 48.5512 975.507 45.1846 978.388 40.8645C981.265 36.5457 982.801 31.4656 982.8 26.2688C982.798 22.8184 982.119 19.4022 980.802 16.2156C979.485 13.029 977.556 10.1344 975.124 7.69725C970.211 2.76912 963.552 0.000771717 956.609 0Z" fill="url(#paint5_linear_63_1085)"/>
<defs>
<linearGradient id="paint0_linear_63_1085" x1="0" y1="27" x2="982.8" y2="27" gradientUnits="userSpaceOnUse">
<stop stop-color="white" stop-opacity="0.05"/>
<stop offset="0.745192" stop-color="white" stop-opacity="0.5"/>
<stop offset="1" stop-color="white" stop-opacity="0.05"/>
</linearGradient>
<linearGradient id="paint1_linear_63_1085" x1="0" y1="27" x2="982.8" y2="27" gradientUnits="userSpaceOnUse">
<stop stop-color="white" stop-opacity="0.05"/>
<stop offset="0.745192" stop-color="white" stop-opacity="0.5"/>
<stop offset="1" stop-color="white" stop-opacity="0.05"/>
</linearGradient>
<linearGradient id="paint2_linear_63_1085" x1="0" y1="27" x2="982.8" y2="27" gradientUnits="userSpaceOnUse">
<stop stop-color="white" stop-opacity="0.05"/>
<stop offset="0.745192" stop-color="white" stop-opacity="0.5"/>
<stop offset="1" stop-color="white" stop-opacity="0.05"/>
</linearGradient>
<linearGradient id="paint3_linear_63_1085" x1="0" y1="27" x2="982.8" y2="27" gradientUnits="userSpaceOnUse">
<stop stop-color="white" stop-opacity="0.05"/>
<stop offset="0.745192" stop-color="white" stop-opacity="0.5"/>
<stop offset="1" stop-color="white" stop-opacity="0.05"/>
</linearGradient>
<linearGradient id="paint4_linear_63_1085" x1="0" y1="27" x2="982.8" y2="27" gradientUnits="userSpaceOnUse">
<stop stop-color="white" stop-opacity="0.05"/>
<stop offset="0.745192" stop-color="white" stop-opacity="0.5"/>
<stop offset="1" stop-color="white" stop-opacity="0.05"/>
</linearGradient>
<linearGradient id="paint5_linear_63_1085" x1="0" y1="27" x2="982.8" y2="27" gradientUnits="userSpaceOnUse">
<stop stop-color="white" stop-opacity="0.05"/>
<stop offset="0.745192" stop-color="white" stop-opacity="0.5"/>
<stop offset="1" stop-color="white" stop-opacity="0.05"/>
</linearGradient>
</defs>
</svg>
