<svg width="404" height="104" viewBox="0 0 404 104" fill="none" xmlns="http://www.w3.org/2000/svg">
<rect x="53" y="23" width="350" height="58" rx="19" fill="url(#paint0_linear_0_1)" stroke="#FAFF00" stroke-width="2"/>
<path d="M134.822 58.286C132.505 58.286 130.583 57.5233 129.058 55.998C127.533 54.4433 126.77 52.544 126.77 50.3C126.77 48.0413 127.533 46.1493 129.058 44.624C130.569 43.084 132.49 42.314 134.822 42.314C136.215 42.314 137.499 42.644 138.672 43.304C139.86 43.964 140.784 44.8587 141.444 45.988L139.244 47.264C138.833 46.5013 138.232 45.9 137.44 45.46C136.663 45.0053 135.79 44.778 134.822 44.778C133.194 44.778 131.859 45.2987 130.818 46.34C129.806 47.3667 129.3 48.6867 129.3 50.3C129.3 51.9133 129.806 53.2333 130.818 54.26C131.859 55.3013 133.194 55.822 134.822 55.822C135.79 55.822 136.67 55.602 137.462 55.162C138.254 54.7073 138.848 54.0987 139.244 53.336L141.444 54.59C140.813 55.7047 139.897 56.6067 138.694 57.296C137.535 57.956 136.245 58.286 134.822 58.286ZM153.996 53.512H145.24C145.416 54.3333 145.812 54.9713 146.428 55.426C147.059 55.8807 147.836 56.108 148.76 56.108C150.007 56.108 150.953 55.6533 151.598 54.744L153.556 55.888C152.486 57.4867 150.88 58.286 148.738 58.286C146.964 58.286 145.519 57.7433 144.404 56.658C143.304 55.558 142.754 54.172 142.754 52.5C142.754 50.872 143.297 49.5007 144.382 48.386C145.453 47.2713 146.846 46.714 148.562 46.714C150.161 46.714 151.481 47.2787 152.522 48.408C153.564 49.5373 154.084 50.9087 154.084 52.522C154.084 52.8153 154.055 53.1453 153.996 53.512ZM145.218 51.576H151.686C151.525 50.7107 151.158 50.0433 150.586 49.574C150.029 49.1047 149.347 48.87 148.54 48.87C147.66 48.87 146.927 49.112 146.34 49.596C145.754 50.08 145.38 50.74 145.218 51.576ZM160.883 52.39L165.899 58H163.061L158.551 52.918V58H156.175V47H158.551V51.862L162.819 47H165.723L160.883 52.39ZM173.723 46.714C175.219 46.714 176.51 47.2787 177.595 48.408C178.666 49.5227 179.201 50.8867 179.201 52.5C179.201 54.128 178.666 55.4993 177.595 56.614C176.525 57.7287 175.234 58.286 173.723 58.286C172.066 58.286 170.783 57.67 169.873 56.438V62.4H167.497V47H169.873V48.584C170.768 47.3373 172.051 46.714 173.723 46.714ZM170.863 55.03C171.523 55.69 172.352 56.02 173.349 56.02C174.347 56.02 175.175 55.69 175.835 55.03C176.495 54.3553 176.825 53.512 176.825 52.5C176.825 51.488 176.495 50.652 175.835 49.992C175.175 49.3173 174.347 48.98 173.349 48.98C172.352 48.98 171.523 49.3173 170.863 49.992C170.203 50.652 169.873 51.488 169.873 52.5C169.873 53.4973 170.203 54.3407 170.863 55.03ZM191.981 53.512H183.225C183.401 54.3333 183.797 54.9713 184.413 55.426C185.043 55.8807 185.821 56.108 186.745 56.108C187.991 56.108 188.937 55.6533 189.583 54.744L191.541 55.888C190.47 57.4867 188.864 58.286 186.723 58.286C184.948 58.286 183.503 57.7433 182.389 56.658C181.289 55.558 180.739 54.172 180.739 52.5C180.739 50.872 181.281 49.5007 182.367 48.386C183.437 47.2713 184.831 46.714 186.547 46.714C188.145 46.714 189.465 47.2787 190.507 48.408C191.548 49.5373 192.069 50.9087 192.069 52.522C192.069 52.8153 192.039 53.1453 191.981 53.512ZM183.203 51.576H189.671C189.509 50.7107 189.143 50.0433 188.571 49.574C188.013 49.1047 187.331 48.87 186.525 48.87C185.645 48.87 184.911 49.112 184.325 49.596C183.738 50.08 183.364 50.74 183.203 51.576ZM192.564 47H202.134V49.288H198.548V58H196.172V49.288H192.564V47ZM211.155 51.378V47H213.531V58H211.155V53.622H206.117V58H203.741V47H206.117V51.378H211.155ZM218.664 50.74H221.084C222.272 50.74 223.233 51.0773 223.966 51.752C224.714 52.412 225.088 53.2847 225.088 54.37C225.088 55.4407 224.714 56.3133 223.966 56.988C223.233 57.6627 222.272 58 221.084 58H216.288V47H218.664V50.74ZM226.408 58V47H228.784V58H226.408ZM218.664 55.866H221.106C221.576 55.866 221.964 55.7267 222.272 55.448C222.595 55.1693 222.756 54.81 222.756 54.37C222.756 53.93 222.602 53.5707 222.294 53.292C221.986 53.0133 221.59 52.874 221.106 52.874H218.664V55.866ZM242.168 53.512H233.412C233.588 54.3333 233.984 54.9713 234.6 55.426C235.231 55.8807 236.008 56.108 236.932 56.108C238.179 56.108 239.125 55.6533 239.77 54.744L241.728 55.888C240.658 57.4867 239.052 58.286 236.91 58.286C235.136 58.286 233.691 57.7433 232.576 56.658C231.476 55.558 230.926 54.172 230.926 52.5C230.926 50.872 231.469 49.5007 232.554 48.386C233.625 47.2713 235.018 46.714 236.734 46.714C238.333 46.714 239.653 47.2787 240.694 48.408C241.736 49.5373 242.256 50.9087 242.256 52.522C242.256 52.8153 242.227 53.1453 242.168 53.512ZM233.39 51.576H239.858C239.697 50.7107 239.33 50.0433 238.758 49.574C238.201 49.1047 237.519 48.87 236.712 48.87C235.832 48.87 235.099 49.112 234.512 49.596C233.926 50.08 233.552 50.74 233.39 51.576ZM257.107 58.198V62.4H254.775V58.198C253.074 57.978 251.724 57.3473 250.727 56.306C249.73 55.2647 249.231 53.996 249.231 52.5C249.231 51.004 249.73 49.7353 250.727 48.694C251.724 47.6527 253.074 47.022 254.775 46.802V42.6H257.107V46.802C258.808 47.022 260.158 47.6527 261.155 48.694C262.152 49.7353 262.651 51.004 262.651 52.5C262.651 53.996 262.152 55.2647 261.155 56.306C260.158 57.3473 258.808 57.978 257.107 58.198ZM257.107 49.068V55.932C258.119 55.7413 258.904 55.3453 259.461 54.744C260.018 54.128 260.297 53.38 260.297 52.5C260.297 51.62 260.018 50.8793 259.461 50.278C258.904 49.662 258.119 49.2587 257.107 49.068ZM254.775 55.932V49.068C253.778 49.2587 252.993 49.662 252.421 50.278C251.864 50.8793 251.585 51.62 251.585 52.5C251.585 53.38 251.864 54.128 252.421 54.744C252.993 55.3453 253.778 55.7413 254.775 55.932ZM267.132 53.974L272.764 47H274.59V58H272.258V51.004L266.626 58H264.8V47H267.132V53.974ZM290.371 55.756V47H292.747V58H277.347V47H279.723V55.756H283.859V47H286.235V55.756H290.371ZM300.209 52.39L305.225 58H302.387L297.877 52.918V58H295.501V47H297.877V51.862L302.145 47H305.049L300.209 52.39ZM309.156 53.974L314.788 47H316.614V58H314.282V51.004L308.65 58H306.824V47H309.156V53.974ZM331.052 52.368C332.226 52.896 332.812 53.7687 332.812 54.986C332.812 55.9393 332.424 56.7313 331.646 57.362C330.869 57.978 329.813 58.286 328.478 58.286C326.264 58.286 324.768 57.406 323.99 55.646L325.926 54.502C326.322 55.602 327.18 56.152 328.5 56.152C329.116 56.152 329.6 56.0273 329.952 55.778C330.304 55.514 330.48 55.1693 330.48 54.744C330.48 54.3627 330.341 54.062 330.062 53.842C329.784 53.6073 329.395 53.49 328.896 53.49H327.334V51.4H328.5C328.984 51.4 329.358 51.29 329.622 51.07C329.901 50.8353 330.04 50.52 330.04 50.124C330.04 49.7427 329.886 49.4347 329.578 49.2C329.27 48.9507 328.86 48.826 328.346 48.826C327.246 48.826 326.484 49.31 326.058 50.278L324.122 49.178C324.929 47.5353 326.322 46.714 328.302 46.714C329.534 46.714 330.51 47.0293 331.228 47.66C331.962 48.276 332.328 49.0313 332.328 49.926C332.328 51.026 331.903 51.84 331.052 52.368ZM344.326 47V55.756H345.8V60.948H343.468V58H335.922V60.948H333.59V55.756H334.932C335.606 54.8173 335.944 53.49 335.944 51.774V47H344.326ZM337.55 55.756H341.994V49.178H338.276V51.774C338.276 53.358 338.034 54.6853 337.55 55.756ZM357.926 53.512H349.17C349.346 54.3333 349.742 54.9713 350.358 55.426C350.989 55.8807 351.766 56.108 352.69 56.108C353.937 56.108 354.883 55.6533 355.528 54.744L357.486 55.888C356.415 57.4867 354.809 58.286 352.668 58.286C350.893 58.286 349.449 57.7433 348.334 56.658C347.234 55.558 346.684 54.172 346.684 52.5C346.684 50.872 347.227 49.5007 348.312 48.386C349.383 47.2713 350.776 46.714 352.492 46.714C354.091 46.714 355.411 47.2787 356.452 48.408C357.493 49.5373 358.014 50.9087 358.014 52.522C358.014 52.8153 357.985 53.1453 357.926 53.512ZM349.148 51.576H355.616C355.455 50.7107 355.088 50.0433 354.516 49.574C353.959 49.1047 353.277 48.87 352.47 48.87C351.59 48.87 350.857 49.112 350.27 49.596C349.683 50.08 349.309 50.74 349.148 51.576ZM365.232 58.286C363.575 58.286 362.189 57.7287 361.074 56.614C359.974 55.4847 359.424 54.1133 359.424 52.5C359.424 50.8573 359.974 49.486 361.074 48.386C362.189 47.2713 363.575 46.714 365.232 46.714C366.303 46.714 367.278 46.9707 368.158 47.484C369.038 47.9973 369.698 48.6867 370.138 49.552L368.092 50.74C367.843 50.212 367.462 49.8013 366.948 49.508C366.45 49.2 365.87 49.046 365.21 49.046C364.242 49.046 363.428 49.376 362.768 50.036C362.123 50.7107 361.8 51.532 361.8 52.5C361.8 53.468 362.123 54.2893 362.768 54.964C363.428 55.624 364.242 55.954 365.21 55.954C365.856 55.954 366.435 55.8073 366.948 55.514C367.476 55.206 367.872 54.788 368.136 54.26L370.182 55.426C369.713 56.306 369.031 57.0027 368.136 57.516C367.256 58.0293 366.288 58.286 365.232 58.286ZM374.34 50.74H376.76C377.948 50.74 378.909 51.0773 379.642 51.752C380.39 52.412 380.764 53.2847 380.764 54.37C380.764 55.4407 380.39 56.3133 379.642 56.988C378.909 57.6627 377.948 58 376.76 58H371.964V47H374.34V50.74ZM374.34 55.866H376.782C377.251 55.866 377.64 55.7267 377.948 55.448C378.271 55.1693 378.432 54.81 378.432 54.37C378.432 53.93 378.278 53.5707 377.97 53.292C377.662 53.0133 377.266 52.874 376.782 52.874H374.34V55.866Z" fill="#1E1E1E"/>
<circle cx="52" cy="52" r="51" fill="url(#paint1_linear_0_1)" stroke="#D9D9D9" stroke-width="2"/>
<path d="M69.523 48.5914C68.6672 48.5937 67.8301 48.8436 67.1115 49.3112C66.8796 48.6807 66.51 48.1107 66.0298 47.6432C65.5496 47.1756 64.9712 46.8226 64.3373 46.61C63.7034 46.3974 63.03 46.3307 62.3671 46.415C61.7041 46.4992 61.0684 46.7321 60.5069 47.0965C60.1869 46.237 59.6142 45.4959 58.8651 44.9721C58.116 44.4483 57.226 44.1665 56.3136 44.1643C55.575 44.1688 54.8493 44.3594 54.2027 44.7186V41.0689C56.2171 40.0608 57.8347 38.3988 58.7942 36.3515C59.7536 34.3042 59.9988 31.9913 59.4902 29.7865C58.9815 27.5817 57.7487 25.6139 55.991 24.201C54.2333 22.7881 52.0534 22.0127 49.8035 22.0002C47.5536 21.9876 45.3653 22.7385 43.5921 24.1317C41.8188 25.5248 40.5644 27.4787 40.0314 29.6777C39.4984 31.8766 39.718 34.1921 40.6548 36.25C41.5915 38.3079 43.1907 39.9879 45.1938 41.0186V61.911L44.8503 62.0549L41.3536 58.5253C40.322 57.4799 39.0201 56.746 37.5952 56.4067C36.1703 56.0675 34.6795 56.1364 33.2916 56.6057C32.8026 56.7705 32.3579 57.0463 31.992 57.4119C31.626 57.7775 31.3487 58.2229 31.1815 58.7136C31.0142 59.2044 30.9616 59.7273 31.0277 60.2418C31.0937 60.7564 31.2766 61.2487 31.5623 61.6806L38.7967 72.6007C39.9254 74.3188 41.1964 75.9378 42.5963 77.4405C44.003 78.8976 45.6887 80.0528 47.5515 80.8364C49.4143 81.62 51.4156 82.0156 53.4347 81.9995H58.9207C61.9606 82.0098 64.9331 81.0981 67.4503 79.3834C69.9675 77.6687 71.9125 75.2306 73.0316 72.3871C73.6723 70.7812 74.001 69.0666 74 67.3362V53.112C73.9981 51.9165 73.5264 50.7703 72.6876 49.9234C71.8489 49.0765 70.7113 48.5977 69.523 48.5914ZM42.1312 32.0708C42.1281 30.7582 42.4605 29.4668 43.0963 28.3205C43.7322 27.1743 44.6502 26.2117 45.7623 25.5251C46.8744 24.8384 48.1432 24.4509 49.4471 24.3995C50.7509 24.3482 52.046 24.6349 53.208 25.2319C54.37 25.829 55.36 26.7165 56.0829 27.8093C56.8059 28.9021 57.2375 30.1634 57.3364 31.4723C57.4354 32.7811 57.1982 34.0936 56.6478 35.2838C56.0974 36.4739 55.2521 37.5018 54.1932 38.2687V33.1794C54.207 32.5768 54.1009 31.9775 53.8812 31.4168C53.6616 30.856 53.3327 30.3451 52.9139 29.914C52.4951 29.4829 51.995 29.1404 51.4427 28.9065C50.8905 28.6727 50.2974 28.5522 49.6983 28.5522C49.0991 28.5522 48.506 28.6727 47.9538 28.9065C47.4016 29.1404 46.9014 29.4829 46.4826 29.914C46.0639 30.3451 45.735 30.856 45.5153 31.4168C45.2956 31.9775 45.1895 32.5768 45.2033 33.1794V38.1967C44.2549 37.4845 43.4838 36.5604 42.9507 35.4974C42.4176 34.4344 42.1371 33.2614 42.1312 32.0708ZM71.6243 67.3434C71.6246 68.7687 71.3542 70.1809 70.8277 71.5041C69.8823 73.8996 68.2417 75.9532 66.1196 77.3972C63.9975 78.8412 61.4922 79.6089 58.9302 79.6H53.4442C51.7483 79.6151 50.0669 79.2841 48.5017 78.6271C46.9365 77.9701 45.5199 77.0008 44.3375 75.7776C43.0274 74.3804 41.8377 72.8737 40.7811 71.2738L33.5468 60.3537C33.4639 60.2291 33.4107 60.0869 33.3913 59.9382C33.372 59.7895 33.387 59.6384 33.4353 59.4965C33.4835 59.3546 33.5637 59.2259 33.6695 59.1202C33.7753 59.0146 33.9039 58.935 34.0453 58.8876C35.013 58.562 36.0518 58.5144 37.045 58.75C38.0381 58.9857 38.9462 59.4954 39.6673 60.2217L43.1735 63.7634C43.5363 64.125 43.9975 64.3705 44.4989 64.4688C45.0002 64.5671 45.5193 64.5138 45.9905 64.3156C46.4618 64.1175 46.8642 63.7833 47.1469 63.3554C47.4296 62.9274 47.58 62.4248 47.579 61.911V33.1794C47.5695 32.8947 47.617 32.611 47.7188 32.3451C47.8205 32.0792 47.9744 31.8367 48.1712 31.6319C48.3681 31.4271 48.6038 31.2642 48.8645 31.153C49.1253 31.0418 49.4055 30.9845 49.6887 30.9845C49.9719 30.9845 50.2522 31.0418 50.5129 31.153C50.7736 31.2642 51.0094 31.4271 51.2062 31.6319C51.4031 31.8367 51.557 32.0792 51.6587 32.3451C51.7604 32.611 51.808 32.8947 51.7984 33.1794V50.8997C51.7984 51.2179 51.9241 51.523 52.1477 51.748C52.3714 51.973 52.6747 52.0994 52.991 52.0994C53.3073 52.0994 53.6107 51.973 53.8343 51.748C54.058 51.523 54.1837 51.2179 54.1837 50.8997V48.6825C54.2021 48.132 54.4324 47.6102 54.826 47.2273C55.2197 46.8444 55.7458 46.6304 56.2934 46.6304C56.8409 46.6304 57.3671 46.8444 57.7607 47.2273C58.1544 47.6102 58.3847 48.132 58.4031 48.6825V52.0058C58.4031 52.324 58.5287 52.6292 58.7524 52.8542C58.9761 53.0792 59.2794 53.2056 59.5957 53.2056C59.912 53.2056 60.2153 53.0792 60.439 52.8542C60.6627 52.6292 60.7883 52.324 60.7883 52.0058V50.8997C60.7883 50.6208 60.8429 50.3447 60.949 50.087C61.0551 49.8294 61.2106 49.5953 61.4066 49.3981C61.6026 49.2009 61.8353 49.0445 62.0914 48.9378C62.3475 48.831 62.622 48.7761 62.8992 48.7761C63.1764 48.7761 63.4509 48.831 63.707 48.9378C63.9631 49.0445 64.1958 49.2009 64.3919 49.3981C64.5879 49.5953 64.7434 49.8294 64.8494 50.087C64.9555 50.3447 65.0101 50.6208 65.0101 50.8997V54.2206C65.0101 54.5388 65.1358 54.8439 65.3594 55.0689C65.5831 55.2939 65.8864 55.4203 66.2027 55.4203C66.519 55.4203 66.8224 55.2939 67.046 55.0689C67.2697 54.8439 67.3953 54.5388 67.3953 54.2206V53.112C67.4137 52.5615 67.6441 52.0397 68.0377 51.6568C68.4314 51.2739 68.9575 51.0598 69.5051 51.0598C70.0526 51.0598 70.5788 51.2739 70.9724 51.6568C71.366 52.0397 71.5964 52.5615 71.6148 53.112L71.6243 67.3434Z" fill="#1E1E1E"/>
<defs>
<linearGradient id="paint0_linear_0_1" x1="228" y1="82" x2="403.788" y2="21.3854" gradientUnits="userSpaceOnUse">
<stop stop-color="#FAFF00"/>
<stop offset="1" stop-color="white"/>
</linearGradient>
<linearGradient id="paint1_linear_0_1" x1="104" y1="-5.73122e-06" x2="4.23018" y2="107.911" gradientUnits="userSpaceOnUse">
<stop offset="0.25" stop-color="white"/>
<stop offset="0.754415" stop-color="#D9D9D9"/>
</linearGradient>
</defs>
</svg>
