<svg width="377" height="30" viewBox="0 0 377 30" fill="none" xmlns="http://www.w3.org/2000/svg">
<path d="M9.4773 20.495L15.0211 8.2825C15.1204 8.06231 15.2659 7.86625 15.4476 7.70772C15.6294 7.54919 15.843 7.43193 16.0739 7.36393C16.3049 7.29593 16.5477 7.27881 16.7859 7.31372C17.024 7.34864 17.2519 7.43478 17.4539 7.56625C17.7239 7.74125 17.9392 7.99 18.0711 8.28375L21.1895 15.1488L9.4773 20.495ZM16.5455 0.795C14.9833 0.793074 13.4535 1.24212 12.1382 2.08867C10.8229 2.93522 9.77747 4.14361 9.12638 5.57L0 25.695L4.28818 30L23.8749 21.0687L27.195 28.3875L33.0934 25.7013L23.9658 5.5975C23.3148 4.17069 22.2692 2.9619 20.9537 2.1151C19.6381 1.26831 18.1079 0.819193 16.5455 0.82125V0.795ZM61.9546 3.83625L52.5694 23.6375C51.907 25.036 50.8634 26.2171 49.5597 27.0437C48.256 27.8703 46.7456 28.3085 45.2038 28.3075C43.6626 28.3068 42.1531 27.8678 40.8499 27.0414C39.5467 26.215 38.503 25.0348 37.8395 23.6375L28.4543 3.8125L34.3042 1.025C34.3042 1.025 39.6601 12.3088 43.6894 20.85C43.8253 21.1376 44.0396 21.3805 44.3074 21.5507C44.5753 21.7208 44.8857 21.8111 45.2026 21.8111C45.5195 21.8111 45.8299 21.7208 46.0977 21.5507C46.3656 21.3805 46.5799 21.1376 46.7158 20.85L56.1047 1.025L61.9546 3.83625ZM76.4493 23.0775C74.78 23.0766 73.1482 22.5793 71.7597 21.6484C70.3713 20.7174 69.2882 19.3945 68.647 17.8463C68.0072 16.2982 67.8396 14.5942 68.1653 12.9503C68.4909 11.3064 69.2952 9.79662 70.4762 8.6125C71.6574 7.42619 73.162 6.61813 74.8001 6.29041C76.4382 5.96269 78.1363 6.13002 79.6798 6.77125C81.2215 7.41175 82.54 8.49642 83.469 9.88852C84.398 11.2806 84.8959 12.9178 84.9 14.5938C84.8993 15.707 84.6802 16.8093 84.2553 17.8375C83.8304 18.8657 83.208 19.7997 82.4236 20.5863C80.8378 22.1755 78.6894 23.0682 76.4493 23.0688V23.0775ZM76.4493 0C73.5723 0 70.7587 0.8575 68.367 2.46125C65.9767 4.06545 64.1127 6.34454 63.0099 9.01125C61.9086 11.678 61.6207 14.6133 62.1825 17.4447C62.7444 20.2761 64.1307 22.8761 66.1656 24.915C68.2016 26.9564 70.7939 28.3462 73.6154 28.9091C76.437 29.4719 79.3613 29.1825 82.0192 28.0775C84.6763 26.9729 86.9483 25.1026 88.5485 22.7025C90.1472 20.3031 91.0004 17.4809 91 14.5938C90.9989 12.6769 90.6217 10.779 89.8899 9.00868C89.1582 7.23833 88.0863 5.63021 86.7355 4.27625C84.006 1.5384 80.3066 0.000428732 76.4493 0Z" fill="#FAFF00"/>
<path d="M209.678 4.18652H188.707L209.365 27.2217L206.222 30L185.708 7.17383V30H181V0H209.691L209.678 4.18652ZM243.038 3.71777H219.107V12.1826H236.974V15.9395H219.107V26.2822H243.077V30H214.386V0H243.077L243.038 3.71777ZM276.411 15.9395H252.441V30H247.798V0H276.489L276.411 15.9395ZM309.967 30H281.119V0H309.967V30ZM343.313 3.67871H319.344V12.1436H343.313V30H314.623V26.2822H338.593V15.9395H314.648V0H343.34L343.313 3.67871ZM376.987 3.67871H364.298V30H359.603V3.71777H347.865V0H377L376.987 3.67871ZM285.818 26.2822H305.264V3.7168H285.818V26.2822ZM252.438 12.1826H271.713V3.7168H252.438V12.1826Z" fill="white"/>
<path d="M124.529 0L121 3.52941L132.471 15L121 26.4706L124.529 30L136 18.5294L147.471 30L151 26.4706L139.529 15L151 3.52941L147.471 0L136 11.4706L124.529 0Z" fill="white"/>
</svg>
