<svg width="84" height="84" viewBox="0 0 84 84" fill="none" xmlns="http://www.w3.org/2000/svg">
<path d="M42.0003 0C18.8044 0 0 18.8044 0 42.0003C0 62.8042 15.1419 80.0334 34.9954 83.3697V50.7626H24.8638V39.0287H34.9954V30.3765C34.9954 20.3375 41.127 14.8669 50.0838 14.8669C54.3735 14.8669 58.06 15.1865 59.1302 15.3273V25.8207L52.918 25.8237C48.0481 25.8237 47.1092 28.1374 47.1092 31.5339V39.0227H58.7294L57.2138 50.7566H47.1092V83.6503C67.8896 81.1211 84 63.4531 84 41.9882C84 18.8044 65.1956 0 42.0003 0Z" fill="#1E1E1E"/>
</svg>
