<svg width="60" height="60" viewBox="0 0 60 60" fill="none" xmlns="http://www.w3.org/2000/svg">
<rect x="1" y="1" width="58" height="58" rx="19" stroke="#FAFF00" stroke-width="2"/>
<path d="M30.0001 15C21.7159 15 15 21.7159 15 30.0001C15 37.4301 20.4078 43.5834 27.4984 44.7749V33.1295H23.8799V28.9388H27.4984V25.8488C27.4984 22.2634 29.6882 20.3096 32.8871 20.3096C34.4191 20.3096 35.7357 20.4238 36.1179 20.474V24.2217L33.8993 24.2228C32.16 24.2228 31.8247 25.0491 31.8247 26.2621V28.9367H35.9748L35.4335 33.1274H31.8247V44.8751C39.2463 43.9718 45 37.6618 45 29.9958C45 21.7159 38.2841 15 30.0001 15Z" fill="white"/>
</svg>
