<svg width="352" height="60" viewBox="0 0 352 60" fill="none" xmlns="http://www.w3.org/2000/svg">
<rect x="1" y="1" width="350" height="58" rx="19" fill="url(#paint0_linear_0_1)" stroke="#FAFF00" stroke-width="2"/>
<path d="M82.822 36.286C80.5047 36.286 78.5833 35.5233 77.058 33.998C75.5327 32.4433 74.77 30.544 74.77 28.3C74.77 26.0413 75.5327 24.1493 77.058 22.624C78.5687 21.084 80.49 20.314 82.822 20.314C84.2153 20.314 85.4987 20.644 86.672 21.304C87.86 21.964 88.784 22.8587 89.444 23.988L87.244 25.264C86.8333 24.5013 86.232 23.9 85.44 23.46C84.6627 23.0053 83.79 22.778 82.822 22.778C81.194 22.778 79.8593 23.2987 78.818 24.34C77.806 25.3667 77.3 26.6867 77.3 28.3C77.3 29.9133 77.806 31.2333 78.818 32.26C79.8593 33.3013 81.194 33.822 82.822 33.822C83.79 33.822 84.67 33.602 85.462 33.162C86.254 32.7073 86.848 32.0987 87.244 31.336L89.444 32.59C88.8133 33.7047 87.8967 34.6067 86.694 35.296C85.5353 35.956 84.2447 36.286 82.822 36.286ZM101.996 31.512H93.2404C93.4164 32.3333 93.8124 32.9713 94.4284 33.426C95.059 33.8807 95.8364 34.108 96.7604 34.108C98.007 34.108 98.953 33.6533 99.5984 32.744L101.556 33.888C100.486 35.4867 98.8797 36.286 96.7384 36.286C94.9637 36.286 93.519 35.7433 92.4044 34.658C91.3044 33.558 90.7544 32.172 90.7544 30.5C90.7544 28.872 91.297 27.5007 92.3824 26.386C93.453 25.2713 94.8464 24.714 96.5624 24.714C98.161 24.714 99.481 25.2787 100.522 26.408C101.564 27.5373 102.084 28.9087 102.084 30.522C102.084 30.8153 102.055 31.1453 101.996 31.512ZM93.2184 29.576H99.6864C99.525 28.7107 99.1584 28.0433 98.5864 27.574C98.029 27.1047 97.347 26.87 96.5404 26.87C95.6604 26.87 94.927 27.112 94.3404 27.596C93.7537 28.08 93.3797 28.74 93.2184 29.576ZM108.883 30.39L113.899 36H111.061L106.551 30.918V36H104.175V25H106.551V29.862L110.819 25H113.723L108.883 30.39ZM121.723 24.714C123.219 24.714 124.51 25.2787 125.595 26.408C126.666 27.5227 127.201 28.8867 127.201 30.5C127.201 32.128 126.666 33.4993 125.595 34.614C124.525 35.7287 123.234 36.286 121.723 36.286C120.066 36.286 118.783 35.67 117.873 34.438V40.4H115.497V25H117.873V26.584C118.768 25.3373 120.051 24.714 121.723 24.714ZM118.863 33.03C119.523 33.69 120.352 34.02 121.349 34.02C122.347 34.02 123.175 33.69 123.835 33.03C124.495 32.3553 124.825 31.512 124.825 30.5C124.825 29.488 124.495 28.652 123.835 27.992C123.175 27.3173 122.347 26.98 121.349 26.98C120.352 26.98 119.523 27.3173 118.863 27.992C118.203 28.652 117.873 29.488 117.873 30.5C117.873 31.4973 118.203 32.3407 118.863 33.03ZM139.981 31.512H131.225C131.401 32.3333 131.797 32.9713 132.413 33.426C133.043 33.8807 133.821 34.108 134.745 34.108C135.991 34.108 136.937 33.6533 137.583 32.744L139.541 33.888C138.47 35.4867 136.864 36.286 134.723 36.286C132.948 36.286 131.503 35.7433 130.389 34.658C129.289 33.558 128.739 32.172 128.739 30.5C128.739 28.872 129.281 27.5007 130.367 26.386C131.437 25.2713 132.831 24.714 134.547 24.714C136.145 24.714 137.465 25.2787 138.507 26.408C139.548 27.5373 140.069 28.9087 140.069 30.522C140.069 30.8153 140.039 31.1453 139.981 31.512ZM131.203 29.576H137.671C137.509 28.7107 137.143 28.0433 136.571 27.574C136.013 27.1047 135.331 26.87 134.525 26.87C133.645 26.87 132.911 27.112 132.325 27.596C131.738 28.08 131.364 28.74 131.203 29.576ZM140.564 25H150.134V27.288H146.548V36H144.172V27.288H140.564V25ZM159.155 29.378V25H161.531V36H159.155V31.622H154.117V36H151.741V25H154.117V29.378H159.155ZM166.664 28.74H169.084C170.272 28.74 171.233 29.0773 171.966 29.752C172.714 30.412 173.088 31.2847 173.088 32.37C173.088 33.4407 172.714 34.3133 171.966 34.988C171.233 35.6627 170.272 36 169.084 36H164.288V25H166.664V28.74ZM174.408 36V25H176.784V36H174.408ZM166.664 33.866H169.106C169.576 33.866 169.964 33.7267 170.272 33.448C170.595 33.1693 170.756 32.81 170.756 32.37C170.756 31.93 170.602 31.5707 170.294 31.292C169.986 31.0133 169.59 30.874 169.106 30.874H166.664V33.866ZM190.168 31.512H181.412C181.588 32.3333 181.984 32.9713 182.6 33.426C183.231 33.8807 184.008 34.108 184.932 34.108C186.179 34.108 187.125 33.6533 187.77 32.744L189.728 33.888C188.658 35.4867 187.052 36.286 184.91 36.286C183.136 36.286 181.691 35.7433 180.576 34.658C179.476 33.558 178.926 32.172 178.926 30.5C178.926 28.872 179.469 27.5007 180.554 26.386C181.625 25.2713 183.018 24.714 184.734 24.714C186.333 24.714 187.653 25.2787 188.694 26.408C189.736 27.5373 190.256 28.9087 190.256 30.522C190.256 30.8153 190.227 31.1453 190.168 31.512ZM181.39 29.576H187.858C187.697 28.7107 187.33 28.0433 186.758 27.574C186.201 27.1047 185.519 26.87 184.712 26.87C183.832 26.87 183.099 27.112 182.512 27.596C181.926 28.08 181.552 28.74 181.39 29.576ZM205.107 36.198V40.4H202.775V36.198C201.074 35.978 199.724 35.3473 198.727 34.306C197.73 33.2647 197.231 31.996 197.231 30.5C197.231 29.004 197.73 27.7353 198.727 26.694C199.724 25.6527 201.074 25.022 202.775 24.802V20.6H205.107V24.802C206.808 25.022 208.158 25.6527 209.155 26.694C210.152 27.7353 210.651 29.004 210.651 30.5C210.651 31.996 210.152 33.2647 209.155 34.306C208.158 35.3473 206.808 35.978 205.107 36.198ZM205.107 27.068V33.932C206.119 33.7413 206.904 33.3453 207.461 32.744C208.018 32.128 208.297 31.38 208.297 30.5C208.297 29.62 208.018 28.8793 207.461 28.278C206.904 27.662 206.119 27.2587 205.107 27.068ZM202.775 33.932V27.068C201.778 27.2587 200.993 27.662 200.421 28.278C199.864 28.8793 199.585 29.62 199.585 30.5C199.585 31.38 199.864 32.128 200.421 32.744C200.993 33.3453 201.778 33.7413 202.775 33.932ZM215.132 31.974L220.764 25H222.59V36H220.258V29.004L214.626 36H212.8V25H215.132V31.974ZM238.371 33.756V25H240.747V36H225.347V25H227.723V33.756H231.859V25H234.235V33.756H238.371ZM248.209 30.39L253.225 36H250.387L245.877 30.918V36H243.501V25H245.877V29.862L250.145 25H253.049L248.209 30.39ZM257.156 31.974L262.788 25H264.614V36H262.282V29.004L256.65 36H254.824V25H257.156V31.974ZM279.052 30.368C280.226 30.896 280.812 31.7687 280.812 32.986C280.812 33.9393 280.424 34.7313 279.646 35.362C278.869 35.978 277.813 36.286 276.478 36.286C274.264 36.286 272.768 35.406 271.99 33.646L273.926 32.502C274.322 33.602 275.18 34.152 276.5 34.152C277.116 34.152 277.6 34.0273 277.952 33.778C278.304 33.514 278.48 33.1693 278.48 32.744C278.48 32.3627 278.341 32.062 278.062 31.842C277.784 31.6073 277.395 31.49 276.896 31.49H275.334V29.4H276.5C276.984 29.4 277.358 29.29 277.622 29.07C277.901 28.8353 278.04 28.52 278.04 28.124C278.04 27.7427 277.886 27.4347 277.578 27.2C277.27 26.9507 276.86 26.826 276.346 26.826C275.246 26.826 274.484 27.31 274.058 28.278L272.122 27.178C272.929 25.5353 274.322 24.714 276.302 24.714C277.534 24.714 278.51 25.0293 279.228 25.66C279.962 26.276 280.328 27.0313 280.328 27.926C280.328 29.026 279.903 29.84 279.052 30.368ZM292.326 25V33.756H293.8V38.948H291.468V36H283.922V38.948H281.59V33.756H282.932C283.606 32.8173 283.944 31.49 283.944 29.774V25H292.326ZM285.55 33.756H289.994V27.178H286.276V29.774C286.276 31.358 286.034 32.6853 285.55 33.756ZM305.926 31.512H297.17C297.346 32.3333 297.742 32.9713 298.358 33.426C298.989 33.8807 299.766 34.108 300.69 34.108C301.937 34.108 302.883 33.6533 303.528 32.744L305.486 33.888C304.415 35.4867 302.809 36.286 300.668 36.286C298.893 36.286 297.449 35.7433 296.334 34.658C295.234 33.558 294.684 32.172 294.684 30.5C294.684 28.872 295.227 27.5007 296.312 26.386C297.383 25.2713 298.776 24.714 300.492 24.714C302.091 24.714 303.411 25.2787 304.452 26.408C305.493 27.5373 306.014 28.9087 306.014 30.522C306.014 30.8153 305.985 31.1453 305.926 31.512ZM297.148 29.576H303.616C303.455 28.7107 303.088 28.0433 302.516 27.574C301.959 27.1047 301.277 26.87 300.47 26.87C299.59 26.87 298.857 27.112 298.27 27.596C297.683 28.08 297.309 28.74 297.148 29.576ZM313.232 36.286C311.575 36.286 310.189 35.7287 309.074 34.614C307.974 33.4847 307.424 32.1133 307.424 30.5C307.424 28.8573 307.974 27.486 309.074 26.386C310.189 25.2713 311.575 24.714 313.232 24.714C314.303 24.714 315.278 24.9707 316.158 25.484C317.038 25.9973 317.698 26.6867 318.138 27.552L316.092 28.74C315.843 28.212 315.462 27.8013 314.948 27.508C314.45 27.2 313.87 27.046 313.21 27.046C312.242 27.046 311.428 27.376 310.768 28.036C310.123 28.7107 309.8 29.532 309.8 30.5C309.8 31.468 310.123 32.2893 310.768 32.964C311.428 33.624 312.242 33.954 313.21 33.954C313.856 33.954 314.435 33.8073 314.948 33.514C315.476 33.206 315.872 32.788 316.136 32.26L318.182 33.426C317.713 34.306 317.031 35.0027 316.136 35.516C315.256 36.0293 314.288 36.286 313.232 36.286ZM322.34 28.74H324.76C325.948 28.74 326.909 29.0773 327.642 29.752C328.39 30.412 328.764 31.2847 328.764 32.37C328.764 33.4407 328.39 34.3133 327.642 34.988C326.909 35.6627 325.948 36 324.76 36H319.964V25H322.34V28.74ZM322.34 33.866H324.782C325.251 33.866 325.64 33.7267 325.948 33.448C326.271 33.1693 326.432 32.81 326.432 32.37C326.432 31.93 326.278 31.5707 325.97 31.292C325.662 31.0133 325.266 30.874 324.782 30.874H322.34V33.866Z" fill="#1E1E1E"/>
<defs>
<linearGradient id="paint0_linear_0_1" x1="176" y1="60" x2="351.788" y2="-0.614597" gradientUnits="userSpaceOnUse">
<stop stop-color="#FAFF00"/>
<stop offset="1" stop-color="white"/>
</linearGradient>
</defs>
</svg>
