<svg width="104" height="104" viewBox="0 0 104 104" fill="none" xmlns="http://www.w3.org/2000/svg">
<circle cx="52" cy="52" r="51" fill="url(#paint0_linear_0_1)" stroke="#D9D9D9" stroke-width="2"/>
<path d="M69.523 48.5914C68.6672 48.5937 67.8301 48.8436 67.1115 49.3112C66.8796 48.6807 66.51 48.1107 66.0298 47.6432C65.5496 47.1756 64.9712 46.8226 64.3373 46.61C63.7034 46.3974 63.03 46.3307 62.3671 46.415C61.7041 46.4992 61.0684 46.7321 60.5069 47.0965C60.1869 46.237 59.6142 45.4959 58.8651 44.9721C58.116 44.4483 57.226 44.1665 56.3136 44.1643C55.575 44.1688 54.8493 44.3594 54.2027 44.7186V41.0689C56.2171 40.0608 57.8347 38.3988 58.7942 36.3515C59.7536 34.3042 59.9988 31.9913 59.4902 29.7865C58.9815 27.5817 57.7487 25.6139 55.991 24.201C54.2333 22.7881 52.0534 22.0127 49.8035 22.0002C47.5536 21.9876 45.3653 22.7385 43.5921 24.1317C41.8188 25.5248 40.5644 27.4787 40.0314 29.6777C39.4984 31.8766 39.718 34.1921 40.6548 36.25C41.5915 38.3079 43.1907 39.9879 45.1938 41.0186V61.911L44.8503 62.0549L41.3536 58.5253C40.322 57.4799 39.0201 56.746 37.5952 56.4067C36.1703 56.0675 34.6795 56.1364 33.2916 56.6057C32.8026 56.7705 32.3579 57.0463 31.992 57.4119C31.626 57.7775 31.3487 58.2229 31.1815 58.7136C31.0142 59.2044 30.9616 59.7273 31.0277 60.2418C31.0937 60.7564 31.2766 61.2487 31.5623 61.6806L38.7967 72.6007C39.9254 74.3188 41.1964 75.9378 42.5963 77.4405C44.003 78.8976 45.6887 80.0528 47.5515 80.8364C49.4143 81.62 51.4156 82.0156 53.4347 81.9995H58.9207C61.9606 82.0098 64.9331 81.0981 67.4503 79.3834C69.9675 77.6687 71.9125 75.2306 73.0316 72.3871C73.6723 70.7812 74.001 69.0666 74 67.3362V53.112C73.9981 51.9165 73.5264 50.7703 72.6876 49.9234C71.8489 49.0765 70.7113 48.5977 69.523 48.5914ZM42.1312 32.0708C42.1281 30.7582 42.4605 29.4668 43.0963 28.3205C43.7322 27.1743 44.6502 26.2117 45.7623 25.5251C46.8744 24.8384 48.1432 24.4509 49.4471 24.3995C50.7509 24.3482 52.046 24.6349 53.208 25.2319C54.37 25.829 55.36 26.7165 56.0829 27.8093C56.8059 28.9021 57.2375 30.1634 57.3364 31.4723C57.4354 32.7811 57.1982 34.0936 56.6478 35.2838C56.0974 36.4739 55.2521 37.5018 54.1932 38.2687V33.1794C54.207 32.5768 54.1009 31.9775 53.8812 31.4168C53.6616 30.856 53.3327 30.3451 52.9139 29.914C52.4951 29.4829 51.995 29.1404 51.4427 28.9065C50.8905 28.6727 50.2974 28.5522 49.6983 28.5522C49.0991 28.5522 48.506 28.6727 47.9538 28.9065C47.4016 29.1404 46.9014 29.4829 46.4826 29.914C46.0639 30.3451 45.735 30.856 45.5153 31.4168C45.2956 31.9775 45.1895 32.5768 45.2033 33.1794V38.1967C44.2549 37.4845 43.4838 36.5604 42.9507 35.4974C42.4176 34.4344 42.1371 33.2614 42.1312 32.0708ZM71.6243 67.3434C71.6246 68.7687 71.3542 70.1809 70.8277 71.5041C69.8823 73.8996 68.2417 75.9532 66.1196 77.3972C63.9975 78.8412 61.4922 79.6089 58.9302 79.6H53.4442C51.7483 79.6151 50.0669 79.2841 48.5017 78.6271C46.9365 77.9701 45.5199 77.0008 44.3375 75.7776C43.0274 74.3804 41.8377 72.8737 40.7811 71.2738L33.5468 60.3537C33.4639 60.2291 33.4107 60.0869 33.3913 59.9382C33.372 59.7895 33.387 59.6384 33.4353 59.4965C33.4835 59.3546 33.5637 59.2259 33.6695 59.1202C33.7753 59.0146 33.9039 58.935 34.0453 58.8876C35.013 58.562 36.0518 58.5144 37.045 58.75C38.0381 58.9857 38.9462 59.4954 39.6673 60.2217L43.1735 63.7634C43.5363 64.125 43.9975 64.3705 44.4989 64.4688C45.0002 64.5671 45.5193 64.5138 45.9905 64.3156C46.4618 64.1175 46.8642 63.7833 47.1469 63.3554C47.4296 62.9274 47.58 62.4248 47.579 61.911V33.1794C47.5695 32.8947 47.617 32.611 47.7188 32.3451C47.8205 32.0792 47.9744 31.8367 48.1712 31.6319C48.3681 31.4271 48.6038 31.2642 48.8645 31.153C49.1253 31.0418 49.4055 30.9845 49.6887 30.9845C49.9719 30.9845 50.2522 31.0418 50.5129 31.153C50.7736 31.2642 51.0094 31.4271 51.2062 31.6319C51.4031 31.8367 51.557 32.0792 51.6587 32.3451C51.7604 32.611 51.808 32.8947 51.7984 33.1794V50.8997C51.7984 51.2179 51.9241 51.523 52.1477 51.748C52.3714 51.973 52.6747 52.0994 52.991 52.0994C53.3073 52.0994 53.6107 51.973 53.8343 51.748C54.058 51.523 54.1837 51.2179 54.1837 50.8997V48.6825C54.2021 48.132 54.4324 47.6102 54.826 47.2273C55.2197 46.8444 55.7458 46.6304 56.2934 46.6304C56.8409 46.6304 57.3671 46.8444 57.7607 47.2273C58.1544 47.6102 58.3847 48.132 58.4031 48.6825V52.0058C58.4031 52.324 58.5287 52.6292 58.7524 52.8542C58.9761 53.0792 59.2794 53.2056 59.5957 53.2056C59.912 53.2056 60.2153 53.0792 60.439 52.8542C60.6627 52.6292 60.7883 52.324 60.7883 52.0058V50.8997C60.7883 50.6208 60.8429 50.3447 60.949 50.087C61.0551 49.8294 61.2106 49.5953 61.4066 49.3981C61.6026 49.2009 61.8353 49.0445 62.0914 48.9378C62.3475 48.831 62.622 48.7761 62.8992 48.7761C63.1764 48.7761 63.4509 48.831 63.707 48.9378C63.9631 49.0445 64.1958 49.2009 64.3919 49.3981C64.5879 49.5953 64.7434 49.8294 64.8494 50.087C64.9555 50.3447 65.0101 50.6208 65.0101 50.8997V54.2206C65.0101 54.5388 65.1358 54.8439 65.3594 55.0689C65.5831 55.2939 65.8864 55.4203 66.2027 55.4203C66.519 55.4203 66.8224 55.2939 67.046 55.0689C67.2697 54.8439 67.3953 54.5388 67.3953 54.2206V53.112C67.4137 52.5615 67.6441 52.0397 68.0377 51.6568C68.4314 51.2739 68.9575 51.0598 69.5051 51.0598C70.0526 51.0598 70.5788 51.2739 70.9724 51.6568C71.366 52.0397 71.5964 52.5615 71.6148 53.112L71.6243 67.3434Z" fill="#1E1E1E"/>
<defs>
<linearGradient id="paint0_linear_0_1" x1="104" y1="-5.73122e-06" x2="4.23018" y2="107.911" gradientUnits="userSpaceOnUse">
<stop offset="0.25" stop-color="white"/>
<stop offset="0.754415" stop-color="#D9D9D9"/>
</linearGradient>
</defs>
</svg>
