<svg width="64" height="60" viewBox="0 0 64 60" fill="none" xmlns="http://www.w3.org/2000/svg">
<path d="M40.3297 31.1253L59.033 30.4835L40.3297 29.8418C34.7912 29.6527 30.3473 25.2088 30.1582 19.6703L29.5165 0.967025L28.8747 19.6703C28.6857 25.2044 24.2418 29.6483 18.7033 29.8418L0 30.4835L18.7033 31.1253C24.2374 31.3143 28.6813 35.7582 28.8747 41.2967L29.5165 60L30.1582 41.2967C30.3473 35.7626 34.7912 31.3187 40.3297 31.1253ZM54.6418 14.8703L63.8637 14.5538L54.6418 14.2374C51.9121 14.145 49.7231 11.9516 49.6264 9.22197L49.3099 0L48.9934 9.22197C48.9011 11.9516 46.7077 14.1407 43.978 14.2374L34.756 14.5538L43.978 14.8703C46.7077 14.9626 48.8967 17.156 48.9934 19.8857L49.3099 29.1077L49.6264 19.8857C49.7187 17.156 51.9121 14.967 54.6418 14.8703Z" fill="#FAFF00"/>
</svg>
