<svg width="60" height="60" viewBox="0 0 60 60" fill="none" xmlns="http://www.w3.org/2000/svg">
<rect x="1" y="1" width="58" height="58" rx="19" stroke="#FAFF00" stroke-width="2"/>
<path d="M30 35C32.7614 35 35 32.7614 35 30C35 27.2386 32.7614 25 30 25C27.2386 25 25 27.2386 25 30C25 32.7614 27.2386 35 30 35Z" fill="white"/>
<path d="M36.1538 15H23.8462C18.9692 15 15 18.9692 15 23.8462V36.1538C15 41.0308 18.9692 45 23.8462 45H36.1538C41.0308 45 45 41.0308 45 36.1538V23.8462C45 18.9692 41.0308 15 36.1538 15ZM30 37.3077C25.9692 37.3077 22.6923 34.0308 22.6923 30C22.6923 25.9692 25.9692 22.6923 30 22.6923C34.0308 22.6923 37.3077 25.9692 37.3077 30C37.3077 34.0308 34.0308 37.3077 30 37.3077ZM38.6462 23.4615C37.4923 23.4615 36.5385 22.5231 36.5385 21.3538C36.5385 20.1846 37.4769 19.2462 38.6462 19.2462C39.8154 19.2462 40.7538 20.1846 40.7538 21.3538C40.7538 22.5231 39.8154 23.4615 38.6462 23.4615Z" fill="white"/>
</svg>
