<svg width="151" height="40" viewBox="0 0 151 40" fill="none" xmlns="http://www.w3.org/2000/svg">
<g clip-path="url(#clip0_38_2332)">
<path d="M151 0H0V40H151V0Z" fill="#0B1948"/>
<path fill-rule="evenodd" clip-rule="evenodd" d="M29.1466 12.7913H15.1458L28.9376 28.1478L26.8392 30L13.1432 14.7826V30H10V10H29.1554L29.1466 12.7913ZM51.419 12.4783H35.4418V18.1217H47.3704V20.626H35.4418V27.5218H51.4452V30H32.2898V10H51.4452L51.419 12.4783ZM73.7002 20.626H57.6968V30H54.5972V10H73.7524L73.7002 20.626ZM96.1032 30H76.8434V10H96.1032V30ZM118.367 12.4522H102.364V18.0957H118.367V30H99.2116V27.5218H115.215V20.626H99.229V10H118.384L118.367 12.4522ZM140.848 12.4522H132.377V30H129.242V12.4783H121.406V10H140.857L140.848 12.4522ZM92.963 12.478H79.981V27.5216H92.963V12.478ZM57.6946 12.478H70.5636V18.1215H57.6946V12.478Z" fill="white"/>
</g>
<defs>
<clipPath id="clip0_38_2332">
<rect width="151" height="40" fill="white"/>
</clipPath>
</defs>
</svg>
