<svg width="247" height="60" viewBox="0 0 247 60" fill="none" xmlns="http://www.w3.org/2000/svg">
<g clip-path="url(#clip0_38_2384)">
<path d="M43.333 50.7599C43.0992 50.7599 42.906 50.5693 42.8984 50.3355C42.8806 49.8182 42.798 49.1014 42.906 48.9121C43.1145 48.5474 44.1362 48.5753 44.1375 47.8802L44.1337 7.23483C44.1337 6.72268 44.3662 6.24102 44.7602 5.91569C44.7627 5.91317 44.7653 5.91185 44.7678 5.90934C46.6868 4.31698 49.7584 2.23661 51.8871 0.852659C52.6458 0.359573 53.3536 -0.249162 54.0729 0.124466C54.4491 0.320176 54.6651 0.729387 54.6664 1.15385L54.7376 41.0977C54.7389 42.0254 54.7947 42.9544 54.9384 43.8719C55.0655 44.6789 55.2599 45.4745 55.6513 46.1874C56.7519 48.1941 59.2238 48.6338 61.3572 48.7176C61.59 48.7266 61.773 48.9185 61.773 49.151V50.324C61.773 50.5642 61.5774 50.7586 61.3383 50.7586H43.333V50.7599Z" fill="#3E4095"/>
<path d="M18.4411 50.7599C18.6749 50.7599 18.8681 50.5693 18.8757 50.3355C18.8935 49.8182 18.9761 49.1014 18.8681 48.9121C18.6596 48.5474 17.6379 48.5753 17.6366 47.8802L17.6404 7.23483C17.6404 6.72268 17.4079 6.24102 17.0139 5.91569C17.0114 5.91317 17.0089 5.91185 17.0063 5.90934C15.0873 4.31698 12.0157 2.23661 9.88706 0.852659C9.12834 0.359573 8.42046 -0.249162 7.70121 0.124466C7.32502 0.320176 7.10899 0.729387 7.10773 1.15385L7.03652 41.0977C7.03526 42.0254 6.97938 42.9544 6.83576 43.8719C6.70866 44.6789 6.51425 45.4745 6.12279 46.1874C5.02226 48.1941 2.55047 48.6338 0.416724 48.7176C0.184159 48.7266 0.00115967 48.9185 0.00115967 49.151V50.324C0.00115967 50.5642 0.196868 50.7586 0.435785 50.7586H18.4411V50.7599Z" fill="#3E4095"/>
<path d="M40.9909 19.9371V28.7567C40.9909 29.171 40.7647 29.5522 40.4025 29.7518L31.4316 34.6699C31.0923 34.8568 30.6806 34.8568 30.3413 34.6699L21.3704 29.7518C21.0069 29.5522 20.782 29.171 20.782 28.7567V19.9371C20.782 19.0487 21.758 18.5048 22.5141 18.9725L30.2892 23.7915C30.6552 24.019 31.1177 24.019 31.4837 23.7915L39.2588 18.9725C40.0149 18.5048 40.9909 19.0475 40.9909 19.9371Z" fill="#D1AE6C"/>
<path d="M0.825989 55.1758L2.38531 57.0477L3.94463 55.1758H4.76306V59.9214H3.84551V56.589H3.81882L2.44631 58.2604H2.31669L0.944175 56.589H0.917487V59.9214H-6.10352e-05V55.1758H0.825989Z" fill="#3E4095"/>
<path d="M6.51804 55.1758V57.9372C6.51804 58.2209 6.55996 58.4457 6.64513 58.6133C6.7303 58.7814 6.86877 58.9199 7.06067 59.028C7.25257 59.1355 7.47752 59.1904 7.73297 59.1904C8.0138 59.1904 8.25272 59.1384 8.44845 59.0354C8.64418 58.9324 8.78774 58.7929 8.878 58.6144C8.9682 58.4365 9.01396 58.19 9.01396 57.8766V55.1758H9.93152V57.9944C9.93152 58.6339 9.73962 59.1241 9.35708 59.4672C8.9746 59.8104 8.43318 59.982 7.73297 59.982C7.29323 59.982 6.91327 59.9031 6.59051 59.7481C6.26768 59.5919 6.02116 59.366 5.85215 59.0709C5.68183 58.7746 5.59668 58.428 5.59668 58.0299V55.177H6.51678L6.51804 55.1758Z" fill="#3E4095"/>
<path d="M12.4783 55.1758C12.9244 55.1758 13.2879 55.299 13.5687 55.5456C13.8495 55.7921 13.9893 56.1136 13.9893 56.5102C13.9893 56.7796 13.9194 57.0147 13.781 57.2154C13.6411 57.4161 13.4353 57.574 13.1608 57.6895C13.312 57.7708 13.4467 57.8812 13.5649 58.0224C13.6831 58.162 13.8292 58.3999 14.0033 58.7328C14.2931 59.3088 14.5079 59.704 14.6489 59.9225H13.6259C13.556 59.8184 13.4607 59.6514 13.3412 59.4232C13.0782 58.9181 12.8863 58.5778 12.7643 58.4022C12.6423 58.2272 12.5241 58.1025 12.411 58.0287C12.2978 57.9549 12.167 57.9183 12.0208 57.9183H11.6879V59.9225H10.7703V55.177H12.4796L12.4783 55.1758ZM12.2712 57.2005C12.5114 57.2005 12.6995 57.1405 12.8367 57.0198C12.974 56.899 13.0426 56.7351 13.0426 56.5267C13.0426 56.3183 12.9752 56.1467 12.8393 56.0387C12.7033 55.9307 12.5101 55.8773 12.2585 55.8773H11.6879V57.1988H12.2724L12.2712 57.2005Z" fill="#3E4095"/>
<path d="M17.4817 55.1758L19.5773 59.9214H18.6089L18.1158 58.766H16.0063L15.5475 59.9214H14.5867L16.5438 55.1758H17.4817ZM16.2858 58.0693H17.8184L17.0165 56.1912L16.2858 58.0693Z" fill="#3E4095"/>
<path d="M21.9486 55.1758C22.4417 55.1758 22.8814 55.2762 23.2665 55.4782C23.6515 55.6803 23.9502 55.9624 24.1637 56.3272C24.3772 56.6919 24.4827 57.1011 24.4827 57.5563C24.4827 58.011 24.3759 58.432 24.1612 58.7912C23.9477 59.1509 23.6426 59.4278 23.2487 59.6251C22.8547 59.8219 22.4023 59.9214 21.894 59.9214H19.961V55.1758H21.9486ZM21.8533 59.2041C22.3604 59.2041 22.767 59.052 23.0746 58.7483C23.3808 58.4428 23.5346 58.0442 23.5346 57.5511C23.5346 57.0579 23.3796 56.6347 23.0708 56.3386C22.762 56.0425 22.3451 55.8938 21.8228 55.8938H20.8786V59.2058H21.8533V59.2041Z" fill="#3E4095"/>
<path d="M28.2114 55.1758C28.646 55.1758 29.0005 55.2889 29.2751 55.5151C29.5496 55.7413 29.6855 56.0247 29.6855 56.364C29.6855 56.5813 29.6283 56.7732 29.514 56.9384C29.3996 57.1037 29.2344 57.2348 29.0158 57.3326V57.3732C29.3462 57.4482 29.6042 57.5957 29.7885 57.8165C29.9728 58.0379 30.0655 58.2958 30.0655 58.5933C30.0655 58.8564 29.9982 59.0915 29.8635 59.2985C29.7288 59.5056 29.542 59.6617 29.303 59.7658C29.0641 59.8705 28.782 59.9225 28.4592 59.9225H26.4716V55.177H28.2114V55.1758ZM27.9674 57.1456C28.2101 57.1456 28.4007 57.0871 28.5418 56.9727C28.6816 56.8571 28.7528 56.697 28.7528 56.4911C28.7528 56.3081 28.688 56.162 28.5596 56.0552C28.4299 55.9472 28.2609 55.8938 28.05 55.8938H27.3904V57.1469H27.9674V57.1456ZM28.1808 59.2041C28.491 59.2041 28.726 59.1458 28.8836 59.0291C29.0425 58.9119 29.1213 58.7403 29.1213 58.5143C29.1213 58.3124 29.0425 58.1534 28.8849 58.0367C28.7273 57.9195 28.5164 57.8611 28.2507 57.8611H27.3879V59.203H28.1796L28.1808 59.2041Z" fill="#3E4095"/>
<path d="M31.5499 55.1758V57.9372C31.5499 58.2209 31.5919 58.4457 31.677 58.6133C31.7621 58.7814 31.9007 58.9199 32.0926 59.028C32.2845 59.1355 32.5094 59.1904 32.7649 59.1904C33.0457 59.1904 33.2846 59.1384 33.4803 59.0354C33.676 58.9324 33.8196 58.7929 33.9099 58.6144C34.0001 58.4365 34.0459 58.19 34.0459 57.8766V55.1758H34.9634V57.9944C34.9634 58.6339 34.7715 59.1241 34.389 59.4672C34.0064 59.8104 33.4651 59.982 32.7649 59.982C32.3251 59.982 31.9452 59.9031 31.6223 59.7481C31.2996 59.5919 31.053 59.366 30.884 59.0709C30.7137 58.7746 30.6285 58.428 30.6285 58.0299V55.177H31.5486L31.5499 55.1758Z" fill="#3E4095"/>
<path d="M36.74 55.1758V59.9214H35.8224V55.1758H36.74Z" fill="#3E4095"/>
<path d="M38.5496 55.1758V59.2041H40.8523V59.9214H37.6321V55.1758H38.5496Z" fill="#3E4095"/>
<path d="M43.2937 55.1758C43.7867 55.1758 44.2265 55.2762 44.6115 55.4782C44.9966 55.6803 45.2953 55.9624 45.5088 56.3272C45.7222 56.6919 45.8277 57.1011 45.8277 57.5563C45.8277 58.011 45.721 58.432 45.5062 58.7912C45.2927 59.1509 44.9877 59.4278 44.5937 59.6251C44.1998 59.8219 43.7474 59.9214 43.239 59.9214H41.3061V55.1758H43.2937ZM43.1997 59.2041C43.7067 59.2041 44.1134 59.052 44.4209 58.7483C44.7272 58.4428 44.881 58.0442 44.881 57.5511C44.881 57.0579 44.7259 56.6347 44.4171 56.3386C44.1083 56.0425 43.6914 55.8938 43.1691 55.8938H42.2249V59.2058H43.1997V59.2041Z" fill="#3E4095"/>
<path d="M47.4481 55.1758V59.9214H46.5305V55.1758H47.4481Z" fill="#3E4095"/>
<path d="M49.1459 55.1758L51.9659 58.4874V55.1758H52.8632V59.9214H52.0752L49.2387 56.5546V59.9214H48.3415V55.1758H49.1459Z" fill="#3E4095"/>
<path d="M56.2207 55.1133C56.8054 55.1133 57.3849 55.2442 57.9591 55.5035V56.3422C57.3837 56.0499 56.818 55.9037 56.2614 55.9037C55.9145 55.9037 55.607 55.9724 55.3375 56.1109C55.0681 56.2494 54.8597 56.4477 54.711 56.7069C54.5623 56.9662 54.4886 57.2558 54.4886 57.5749C54.4886 58.0594 54.65 58.4495 54.9728 58.7452C55.2956 59.0415 55.72 59.189 56.2487 59.189C56.3936 59.189 56.5321 59.1765 56.6643 59.1519C56.7964 59.1267 56.9553 59.0798 57.1383 59.0094V58.2218H56.3542V57.5052H58.0558V59.4619C57.8219 59.6249 57.5422 59.753 57.2144 59.8445C56.8879 59.936 56.5473 59.9818 56.1941 59.9818C55.6934 59.9818 55.2397 59.8788 54.833 59.6729C54.4263 59.467 54.1099 59.1788 53.8824 58.8064C53.6549 58.4352 53.5405 58.0211 53.5405 57.5635C53.5405 57.106 53.6549 56.679 53.885 56.3028C54.115 55.9266 54.4352 55.6343 54.8457 55.4259C55.2562 55.2175 55.7149 55.1133 56.2195 55.1133H56.2207Z" fill="#3E4095"/>
<path d="M60.2356 55.1133C60.6977 55.1133 61.1427 55.2289 61.5694 55.4602V56.2761C61.0781 55.98 60.6423 55.8313 60.2619 55.8313C60.0308 55.8313 59.8501 55.8758 59.7208 55.9648C59.5898 56.0537 59.5252 56.1732 59.5252 56.3231C59.5252 56.5023 59.6459 56.6676 59.8884 56.8188C59.9559 56.8645 60.2173 56.9903 60.6726 57.2003C61.0627 57.3828 61.3423 57.5875 61.5151 57.8112C61.6867 58.0348 61.773 58.3042 61.773 58.6194C61.773 59.0278 61.6266 59.3566 61.3332 59.6072C61.0398 59.8571 60.66 59.9818 60.1933 59.9818C59.8895 59.9818 59.6293 59.9486 59.4108 59.8817C59.1917 59.8142 58.9469 59.6998 58.6747 59.5374V58.6337C59.182 59.0541 59.6596 59.2651 60.108 59.2651C60.3317 59.2651 60.5136 59.2171 60.652 59.1193C60.791 59.0209 60.859 58.8928 60.859 58.7315C60.859 58.5113 60.7383 58.3322 60.4998 58.195C60.3002 58.0857 60.0434 57.9564 59.7282 57.8049C59.3547 57.6344 59.075 57.4365 58.8909 57.21C58.7067 56.984 58.6135 56.7209 58.6135 56.4222C58.6135 56.0232 58.7622 55.7068 59.0585 55.4692C59.3547 55.2328 59.7471 55.1146 60.2339 55.1146L60.2356 55.1133Z" fill="#3E4095"/>
</g>
<path d="M135.023 23.291H121.007L134.813 38.6475L132.713 40.5L119.002 25.2822V40.5H115.855V20.5H135.031L135.023 23.291ZM157.319 22.9785H141.325V28.6221H153.266V31.126H141.325V38.0215H157.345V40.5H138.17V20.5H157.345L157.319 22.9785ZM179.625 31.126H163.604V40.5H160.501V20.5H179.677L179.625 31.126ZM202.052 40.5H182.771V20.5H202.052V40.5ZM224.341 22.9521H208.32V28.5957H224.341V40.5H205.164V38.0215H221.185V31.126H205.181V20.5H224.358L224.341 22.9521ZM246.846 22.9521H238.365V40.5H235.227V22.9785H227.383V20.5H246.855L246.846 22.9521ZM185.913 38.0215H198.909V22.9785H185.913V38.0215ZM163.602 28.6211H176.485V22.9785H163.602V28.6211Z" fill="black"/>
<path d="M93.1111 23.5H95.4744L90.0349 30.082L95.8552 37.1426H93.4919L88.8533 31.498L84.156 37.1426H81.7732L87.6521 30.082L82.1931 23.5H84.5759L88.8533 28.7051L93.1111 23.5Z" fill="#858CA3"/>
<defs>
<clipPath id="clip0_38_2384">
<rect width="61.7731" height="60" fill="white"/>
</clipPath>
</defs>
</svg>
