<svg width="60" height="60" viewBox="0 0 60 60" fill="none" xmlns="http://www.w3.org/2000/svg">
<rect width="60" height="60" rx="30" fill="white"/>
<path d="M19.2148 22.2734V38H17.2275V24.7549L13.2207 26.2158V24.4219L18.9033 22.2734H19.2148ZM34.9199 33.7676C34.9199 34.7201 34.6979 35.5293 34.2539 36.1953C33.8171 36.8542 33.2227 37.3555 32.4707 37.6992C31.7259 38.043 30.8844 38.2148 29.9463 38.2148C29.0081 38.2148 28.1631 38.043 27.4111 37.6992C26.6592 37.3555 26.0648 36.8542 25.6279 36.1953C25.1911 35.5293 24.9727 34.7201 24.9727 33.7676C24.9727 33.1445 25.0908 32.5752 25.3271 32.0596C25.5706 31.5368 25.9108 31.082 26.3477 30.6953C26.7917 30.3086 27.3145 30.0114 27.916 29.8037C28.5247 29.5889 29.1943 29.4814 29.9248 29.4814C30.8844 29.4814 31.7402 29.6676 32.4922 30.04C33.2441 30.4053 33.835 30.9102 34.2646 31.5547C34.7015 32.1992 34.9199 32.9368 34.9199 33.7676ZM32.9219 33.7246C32.9219 33.1445 32.7965 32.6325 32.5459 32.1885C32.2952 31.7373 31.9443 31.3864 31.4932 31.1357C31.042 30.8851 30.5192 30.7598 29.9248 30.7598C29.3161 30.7598 28.7897 30.8851 28.3457 31.1357C27.9089 31.3864 27.5687 31.7373 27.3252 32.1885C27.0817 32.6325 26.96 33.1445 26.96 33.7246C26.96 34.3262 27.0781 34.8418 27.3145 35.2715C27.5579 35.694 27.9017 36.0199 28.3457 36.249C28.7969 36.471 29.3304 36.582 29.9463 36.582C30.5622 36.582 31.0921 36.471 31.5361 36.249C31.9801 36.0199 32.3203 35.694 32.5566 35.2715C32.8001 34.8418 32.9219 34.3262 32.9219 33.7246ZM34.5547 26.4307C34.5547 27.1898 34.3542 27.8737 33.9531 28.4824C33.5521 29.0911 33.0042 29.571 32.3096 29.9219C31.6149 30.2728 30.8271 30.4482 29.9463 30.4482C29.0511 30.4482 28.2526 30.2728 27.5508 29.9219C26.8561 29.571 26.3118 29.0911 25.918 28.4824C25.5241 27.8737 25.3271 27.1898 25.3271 26.4307C25.3271 25.5212 25.5241 24.7477 25.918 24.1104C26.319 23.473 26.8669 22.986 27.5615 22.6494C28.2562 22.3128 29.0475 22.1445 29.9355 22.1445C30.8307 22.1445 31.6257 22.3128 32.3203 22.6494C33.015 22.986 33.5592 23.473 33.9531 24.1104C34.3542 24.7477 34.5547 25.5212 34.5547 26.4307ZM32.5674 26.4629C32.5674 25.9401 32.4564 25.4782 32.2344 25.0771C32.0124 24.6761 31.7044 24.361 31.3105 24.1318C30.9167 23.8955 30.4583 23.7773 29.9355 23.7773C29.4128 23.7773 28.9544 23.8883 28.5605 24.1104C28.1738 24.3252 27.8695 24.6331 27.6475 25.0342C27.4326 25.4352 27.3252 25.9115 27.3252 26.4629C27.3252 27 27.4326 27.4691 27.6475 27.8701C27.8695 28.2712 28.1774 28.5827 28.5713 28.8047C28.9652 29.0267 29.4235 29.1377 29.9463 29.1377C30.4691 29.1377 30.9238 29.0267 31.3105 28.8047C31.7044 28.5827 32.0124 28.2712 32.2344 27.8701C32.4564 27.4691 32.5674 27 32.5674 26.4629ZM47.6924 29.6104V31.4795H36.9717V29.6104H47.6924ZM43.3311 25.0449V36.4316H41.3438V25.0449H43.3311Z" fill="black"/>
</svg>
