<svg width="196" height="30" viewBox="0 0 196 30" fill="none" xmlns="http://www.w3.org/2000/svg">
<path d="M28.6777 4.18652H7.70703L28.3652 27.2217L25.2217 30L4.70801 7.17383V30H0V0H28.6914L28.6777 4.18652ZM62.0381 3.71777H38.1074V12.1826H55.9736V15.9395H38.1074V26.2822H62.0771V30H33.3857V0H62.0771L62.0381 3.71777ZM95.4111 15.9395H71.4414V30H66.7979V0H95.4893L95.4111 15.9395ZM128.967 30H100.119V0H128.967V30ZM162.313 3.67871H138.344V12.1436H162.313V30H133.623V26.2822H157.593V15.9395H133.648V0H162.34L162.313 3.67871ZM195.987 3.67871H183.298V30H178.603V3.71777H166.865V0H196L195.987 3.67871ZM104.818 26.2822H124.264V3.7168H104.818V26.2822ZM71.4375 12.1826H90.7129V3.7168H71.4375V12.1826Z" fill="white"/>
</svg>
