<svg width="84" height="70" viewBox="0 0 84 70" fill="none" xmlns="http://www.w3.org/2000/svg">
<path fill-rule="evenodd" clip-rule="evenodd" d="M5.75137 30.4157C28.2953 20.6252 43.3031 14.1196 50.8393 10.9635C72.2882 2.01031 76.797 0.464436 79.6955 0.400024C80.3396 0.400024 81.7567 0.528848 82.7228 1.30178C83.4958 1.9459 83.689 2.78324 83.8178 3.42736C83.9466 4.07147 84.0755 5.4241 83.9466 6.45468C82.7872 18.6928 77.7632 48.3864 75.1867 62.0416C74.0917 67.8386 71.9661 69.771 69.905 69.9642C65.3962 70.3507 61.9824 67.0013 57.6668 64.1672C50.8392 59.7228 47.039 56.9531 40.4046 52.5732C32.7397 47.5491 37.6994 44.7794 42.0793 40.2706C43.2387 39.1112 63.013 21.076 63.3995 19.4658C63.4639 19.2725 63.4639 18.4996 63.013 18.1131C62.5621 17.7267 61.918 17.8555 61.4027 17.9843C60.6942 18.1131 49.8731 25.3272 28.8106 39.5621C25.7189 41.6876 22.9492 42.7182 20.4371 42.6538C17.6675 42.5894 12.3857 41.1079 8.39223 39.8197C3.56139 38.2738 -0.303289 37.4365 0.0187676 34.7312C0.212001 33.3142 2.14434 31.8971 5.75137 30.4157Z" fill="#1E1E1E"/>
</svg>
