<svg width="60" height="60" viewBox="0 0 60 60" fill="none" xmlns="http://www.w3.org/2000/svg">
<rect x="1" y="1" width="58" height="58" rx="19" stroke="#FAFF00" stroke-width="2"/>
<path fill-rule="evenodd" clip-rule="evenodd" d="M17.0541 28.7199C25.1055 25.2233 30.4654 22.8999 33.1569 21.7727C40.8172 18.5751 42.4275 18.023 43.4627 18C43.6927 18 44.1988 18.046 44.5439 18.3221C44.8199 18.5521 44.8889 18.8511 44.9349 19.0812C44.9809 19.3112 45.027 19.7943 44.9809 20.1624C44.5669 24.5331 42.7726 35.138 41.8524 40.0149C41.4613 42.0852 40.7022 42.7753 39.9661 42.8443C38.3558 42.9824 37.1366 41.7862 35.5953 40.774C33.1569 39.1867 31.7996 38.1975 29.4302 36.6333C26.6927 34.8389 28.4641 33.8498 30.0283 32.2395C30.4424 31.8254 37.5046 25.3843 37.6427 24.8092C37.6657 24.7402 37.6657 24.4641 37.5046 24.3261C37.3436 24.1881 37.1136 24.2341 36.9295 24.2801C36.6765 24.3261 32.8118 26.9026 25.2895 31.9864C24.1853 32.7456 23.1961 33.1136 22.299 33.0906C21.3098 33.0676 19.4235 32.5385 17.9972 32.0785C16.2719 31.5264 14.8917 31.2273 15.0067 30.2611C15.0757 29.7551 15.7658 29.249 17.0541 28.7199Z" fill="white"/>
</svg>
