<svg width="40" height="40" viewBox="0 0 40 40" fill="none" xmlns="http://www.w3.org/2000/svg">
<rect width="40" height="40" fill="#0B1948"/>
<path d="M20.0001 10C14.4772 10 10 14.4772 10 20.0001C10 24.9534 13.6052 29.0556 18.3322 29.8499V22.0863H15.9199V19.2925H18.3322V17.2325C18.3322 14.8423 19.7921 13.5397 21.9247 13.5397C22.9461 13.5397 23.8238 13.6158 24.0786 13.6494V16.1478L22.5995 16.1485C21.44 16.1485 21.2165 16.6994 21.2165 17.5081V19.2911H23.9832L23.6223 22.0849H21.2165V29.9167C26.1642 29.3146 30 25.1079 30 19.9972C30 14.4772 25.5228 10 20.0001 10Z" fill="white"/>
</svg>
