<svg width="84" height="84" viewBox="0 0 84 84" fill="none" xmlns="http://www.w3.org/2000/svg">
<path d="M42 56C49.732 56 56 49.732 56 42C56 34.268 49.732 28 42 28C34.268 28 28 34.268 28 42C28 49.732 34.268 56 42 56Z" fill="#FF4B59"/>
<path d="M59.2308 0H24.7692C11.1138 0 0 11.1138 0 24.7692V59.2308C0 72.8862 11.1138 84 24.7692 84H59.2308C72.8862 84 84 72.8862 84 59.2308V24.7692C84 11.1138 72.8862 0 59.2308 0ZM42 62.4615C30.7138 62.4615 21.5385 53.2862 21.5385 42C21.5385 30.7138 30.7138 21.5385 42 21.5385C53.2862 21.5385 62.4615 30.7138 62.4615 42C62.4615 53.2862 53.2862 62.4615 42 62.4615ZM66.2092 23.6923C62.9785 23.6923 60.3077 21.0646 60.3077 17.7908C60.3077 14.5169 62.9354 11.8892 66.2092 11.8892C69.4831 11.8892 72.1108 14.5169 72.1108 17.7908C72.1108 21.0646 69.4831 23.6923 66.2092 23.6923Z" fill="#FF4B59"/>
</svg>
