<svg width="40" height="40" viewBox="0 0 40 40" fill="none" xmlns="http://www.w3.org/2000/svg">
<rect width="40" height="40" fill="#0B1948"/>
<path d="M20 23.3333C21.841 23.3333 23.3333 21.841 23.3333 20C23.3333 18.1591 21.841 16.6667 20 16.6667C18.1591 16.6667 16.6667 18.1591 16.6667 20C16.6667 21.841 18.1591 23.3333 20 23.3333Z" fill="white"/>
<path d="M24.1026 10H15.8974C12.6462 10 10 12.6462 10 15.8974V24.1026C10 27.3538 12.6462 30 15.8974 30H24.1026C27.3538 30 30 27.3538 30 24.1026V15.8974C30 12.6462 27.3538 10 24.1026 10ZM20 24.8718C17.3128 24.8718 15.1282 22.6872 15.1282 20C15.1282 17.3128 17.3128 15.1282 20 15.1282C22.6872 15.1282 24.8718 17.3128 24.8718 20C24.8718 22.6872 22.6872 24.8718 20 24.8718ZM25.7641 15.641C24.9949 15.641 24.359 15.0154 24.359 14.2359C24.359 13.4564 24.9846 12.8308 25.7641 12.8308C26.5436 12.8308 27.1692 13.4564 27.1692 14.2359C27.1692 15.0154 26.5436 15.641 25.7641 15.641Z" fill="white"/>
</svg>
