<svg width="40" height="40" viewBox="0 0 40 40" fill="none" xmlns="http://www.w3.org/2000/svg">
<rect width="40" height="40" rx="20" fill="#0B1948"/>
<path d="M11.1523 15.7681H12.6172V26H11.1523V15.7681ZM16.3379 18.5146C16.3379 17.7139 16.6382 17.0352 17.2388 16.4785C17.8394 15.917 18.5742 15.6362 19.4434 15.6362C20.2979 15.6362 21.0181 15.9146 21.604 16.4712C22.1948 17.0229 22.4902 17.7041 22.4902 18.5146C22.4902 19.4277 22.0654 20.1821 21.2158 20.7778C22.1631 21.3247 22.6367 22.1304 22.6367 23.1948C22.6367 24.0396 22.3291 24.7378 21.7139 25.2896C21.0986 25.8413 20.3223 26.1172 19.3848 26.1172C18.457 26.1172 17.6782 25.8364 17.0483 25.2749C16.4185 24.7085 16.1035 24.0103 16.1035 23.1802C16.1035 22.1401 16.5869 21.3394 17.5537 20.7778C17.1191 20.4263 16.8066 20.0771 16.6162 19.7305C16.4307 19.3789 16.3379 18.9736 16.3379 18.5146ZM21.0327 18.5586C21.0327 18.1143 20.8789 17.748 20.5713 17.46C20.2686 17.1719 19.8828 17.0278 19.4141 17.0278C18.9404 17.0278 18.5522 17.1694 18.2495 17.4526C17.9468 17.7358 17.7954 18.0996 17.7954 18.5439C17.7954 18.9688 17.9541 19.3325 18.2715 19.6353C18.5938 19.938 18.9795 20.0894 19.4287 20.0894C19.873 20.0894 20.2515 19.9404 20.564 19.6426C20.8765 19.3398 21.0327 18.9785 21.0327 18.5586ZM21.1572 23.2534V23.1069C21.1572 22.6382 20.9888 22.2573 20.6519 21.9644C20.3198 21.6665 19.8877 21.5176 19.3555 21.5176C18.833 21.5176 18.4058 21.6665 18.0737 21.9644C17.7466 22.2622 17.583 22.6479 17.583 23.1216C17.583 23.5952 17.7515 23.981 18.0884 24.2788C18.4253 24.5767 18.8623 24.7256 19.3994 24.7256C19.9121 24.7256 20.332 24.5889 20.6592 24.3154C20.9912 24.042 21.1572 23.688 21.1572 23.2534ZM26.8774 24.2642V21.3198H23.9551V20.0894H26.8774V17.167H28.1226V20.0894H31.0449V21.3198H28.1226V24.2642H26.8774Z" fill="white"/>
</svg>
