<svg width="84" height="70" viewBox="0 0 84 70" fill="none" xmlns="http://www.w3.org/2000/svg">
<path fill-rule="evenodd" clip-rule="evenodd" d="M5.75137 30.0157C28.2953 20.2251 43.3031 13.7196 50.8393 10.5634C72.2882 1.61028 76.797 0.0644113 79.6955 0C80.3396 0 81.7567 0.128823 82.7228 0.901759C83.4958 1.54587 83.689 2.38322 83.8178 3.02733C83.9466 3.67145 84.0755 5.02408 83.9466 6.05466C82.7872 18.2928 77.7632 47.9864 75.1867 61.6416C74.0917 67.4386 71.9661 69.3709 69.905 69.5642C65.3962 69.9506 61.9824 66.6012 57.6668 63.7672C50.8392 59.3228 47.039 56.5531 40.4046 52.1731C32.7397 47.149 37.6994 44.3794 42.0793 39.8706C43.2387 38.7112 63.013 20.676 63.3995 19.0657C63.4639 18.8725 63.4639 18.0996 63.013 17.7131C62.5621 17.3266 61.918 17.4555 61.4027 17.5843C60.6942 17.7131 49.8731 24.9272 28.8106 39.1621C25.7189 41.2876 22.9492 42.3182 20.4371 42.2538C17.6675 42.1894 12.3857 40.7079 8.39223 39.4197C3.56139 37.8738 -0.303289 37.0365 0.0187676 34.3312C0.212001 32.9142 2.14434 31.4971 5.75137 30.0157Z" fill="#FF4B59"/>
</svg>
