<svg width="40" height="40" viewBox="0 0 40 40" fill="none" xmlns="http://www.w3.org/2000/svg">
<rect width="40" height="40" fill="#0B1948"/>
<path fill-rule="evenodd" clip-rule="evenodd" d="M11.3694 19.1466C16.737 16.8155 20.3103 15.2666 22.1046 14.5151C27.2115 12.3834 28.285 12.0153 28.9751 12C29.1285 12 29.4659 12.0307 29.6959 12.2147C29.8799 12.3681 29.926 12.5674 29.9566 12.7208C29.9873 12.8742 30.018 13.1962 29.9873 13.4416C29.7112 16.3554 28.515 23.4253 27.9016 26.6766C27.6409 28.0568 27.1348 28.5169 26.644 28.5629C25.5705 28.6549 24.7577 27.8574 23.7302 27.1827C22.1046 26.1245 21.1998 25.465 19.6201 24.4222C17.7952 23.226 18.976 22.5665 20.0189 21.493C20.2949 21.2169 25.0031 16.9229 25.0951 16.5395C25.1104 16.4935 25.1104 16.3094 25.0031 16.2174C24.8957 16.1254 24.7424 16.1561 24.6197 16.1867C24.451 16.2174 21.8745 17.935 16.8597 21.3243C16.1235 21.8304 15.4641 22.0758 14.866 22.0604C14.2065 22.0451 12.949 21.6924 11.9982 21.3856C10.8479 21.0176 9.92779 20.8182 10.0045 20.1741C10.0505 19.8367 10.5106 19.4993 11.3694 19.1466Z" fill="white"/>
</svg>
